%TF.GenerationSoftware,KiCad,Pcbnew,7.0.5*%
%TF.CreationDate,2023-07-25T09:56:50-05:00*%
%TF.ProjectId,AcoplePic32,41636f70-6c65-4506-9963-33322e6b6963,rev?*%
%TF.SameCoordinates,Original*%
%TF.FileFunction,Legend,Bot*%
%TF.FilePolarity,Positive*%
%FSLAX46Y46*%
G04 Gerber Fmt 4.6, Leading zero omitted, Abs format (unit mm)*
G04 Created by KiCad (PCBNEW 7.0.5) date 2023-07-25 09:56:50*
%MOMM*%
%LPD*%
G01*
G04 APERTURE LIST*
%ADD10C,0.150000*%
%ADD11C,0.120000*%
G04 APERTURE END LIST*
D10*
%TO.C,R3*%
X117006666Y-70397819D02*
X117339999Y-69921628D01*
X117578094Y-70397819D02*
X117578094Y-69397819D01*
X117578094Y-69397819D02*
X117197142Y-69397819D01*
X117197142Y-69397819D02*
X117101904Y-69445438D01*
X117101904Y-69445438D02*
X117054285Y-69493057D01*
X117054285Y-69493057D02*
X117006666Y-69588295D01*
X117006666Y-69588295D02*
X117006666Y-69731152D01*
X117006666Y-69731152D02*
X117054285Y-69826390D01*
X117054285Y-69826390D02*
X117101904Y-69874009D01*
X117101904Y-69874009D02*
X117197142Y-69921628D01*
X117197142Y-69921628D02*
X117578094Y-69921628D01*
X116673332Y-69397819D02*
X116054285Y-69397819D01*
X116054285Y-69397819D02*
X116387618Y-69778771D01*
X116387618Y-69778771D02*
X116244761Y-69778771D01*
X116244761Y-69778771D02*
X116149523Y-69826390D01*
X116149523Y-69826390D02*
X116101904Y-69874009D01*
X116101904Y-69874009D02*
X116054285Y-69969247D01*
X116054285Y-69969247D02*
X116054285Y-70207342D01*
X116054285Y-70207342D02*
X116101904Y-70302580D01*
X116101904Y-70302580D02*
X116149523Y-70350200D01*
X116149523Y-70350200D02*
X116244761Y-70397819D01*
X116244761Y-70397819D02*
X116530475Y-70397819D01*
X116530475Y-70397819D02*
X116625713Y-70350200D01*
X116625713Y-70350200D02*
X116673332Y-70302580D01*
%TO.C,R1*%
X128614466Y-110122619D02*
X128947799Y-109646428D01*
X129185894Y-110122619D02*
X129185894Y-109122619D01*
X129185894Y-109122619D02*
X128804942Y-109122619D01*
X128804942Y-109122619D02*
X128709704Y-109170238D01*
X128709704Y-109170238D02*
X128662085Y-109217857D01*
X128662085Y-109217857D02*
X128614466Y-109313095D01*
X128614466Y-109313095D02*
X128614466Y-109455952D01*
X128614466Y-109455952D02*
X128662085Y-109551190D01*
X128662085Y-109551190D02*
X128709704Y-109598809D01*
X128709704Y-109598809D02*
X128804942Y-109646428D01*
X128804942Y-109646428D02*
X129185894Y-109646428D01*
X127662085Y-110122619D02*
X128233513Y-110122619D01*
X127947799Y-110122619D02*
X127947799Y-109122619D01*
X127947799Y-109122619D02*
X128043037Y-109265476D01*
X128043037Y-109265476D02*
X128138275Y-109360714D01*
X128138275Y-109360714D02*
X128233513Y-109408333D01*
%TO.C,R2*%
X128639866Y-112783119D02*
X128973199Y-112306928D01*
X129211294Y-112783119D02*
X129211294Y-111783119D01*
X129211294Y-111783119D02*
X128830342Y-111783119D01*
X128830342Y-111783119D02*
X128735104Y-111830738D01*
X128735104Y-111830738D02*
X128687485Y-111878357D01*
X128687485Y-111878357D02*
X128639866Y-111973595D01*
X128639866Y-111973595D02*
X128639866Y-112116452D01*
X128639866Y-112116452D02*
X128687485Y-112211690D01*
X128687485Y-112211690D02*
X128735104Y-112259309D01*
X128735104Y-112259309D02*
X128830342Y-112306928D01*
X128830342Y-112306928D02*
X129211294Y-112306928D01*
X128258913Y-111878357D02*
X128211294Y-111830738D01*
X128211294Y-111830738D02*
X128116056Y-111783119D01*
X128116056Y-111783119D02*
X127877961Y-111783119D01*
X127877961Y-111783119D02*
X127782723Y-111830738D01*
X127782723Y-111830738D02*
X127735104Y-111878357D01*
X127735104Y-111878357D02*
X127687485Y-111973595D01*
X127687485Y-111973595D02*
X127687485Y-112068833D01*
X127687485Y-112068833D02*
X127735104Y-112211690D01*
X127735104Y-112211690D02*
X128306532Y-112783119D01*
X128306532Y-112783119D02*
X127687485Y-112783119D01*
%TO.C,D1*%
X117578094Y-66295819D02*
X117578094Y-65295819D01*
X117578094Y-65295819D02*
X117339999Y-65295819D01*
X117339999Y-65295819D02*
X117197142Y-65343438D01*
X117197142Y-65343438D02*
X117101904Y-65438676D01*
X117101904Y-65438676D02*
X117054285Y-65533914D01*
X117054285Y-65533914D02*
X117006666Y-65724390D01*
X117006666Y-65724390D02*
X117006666Y-65867247D01*
X117006666Y-65867247D02*
X117054285Y-66057723D01*
X117054285Y-66057723D02*
X117101904Y-66152961D01*
X117101904Y-66152961D02*
X117197142Y-66248200D01*
X117197142Y-66248200D02*
X117339999Y-66295819D01*
X117339999Y-66295819D02*
X117578094Y-66295819D01*
X116054285Y-66295819D02*
X116625713Y-66295819D01*
X116339999Y-66295819D02*
X116339999Y-65295819D01*
X116339999Y-65295819D02*
X116435237Y-65438676D01*
X116435237Y-65438676D02*
X116530475Y-65533914D01*
X116530475Y-65533914D02*
X116625713Y-65581533D01*
D11*
%TO.C,R1*%
X127720736Y-106937800D02*
X129174864Y-106937800D01*
X127720736Y-108757800D02*
X129174864Y-108757800D01*
%TO.C,R2*%
X128218476Y-110375800D02*
X128727924Y-110375800D01*
X128218476Y-111420800D02*
X128727924Y-111420800D01*
%TO.C,D1*%
X118850000Y-68541000D02*
X115590000Y-68541000D01*
X118850000Y-66841000D02*
X118850000Y-68541000D01*
X118850000Y-66841000D02*
X115590000Y-66841000D01*
%TD*%
M02*
