%TF.GenerationSoftware,KiCad,Pcbnew,7.0.5*%
%TF.CreationDate,2023-07-25T09:56:50-05:00*%
%TF.ProjectId,AcoplePic32,41636f70-6c65-4506-9963-33322e6b6963,rev?*%
%TF.SameCoordinates,Original*%
%TF.FileFunction,Paste,Top*%
%TF.FilePolarity,Positive*%
%FSLAX46Y46*%
G04 Gerber Fmt 4.6, Leading zero omitted, Abs format (unit mm)*
G04 Created by KiCad (PCBNEW 7.0.5) date 2023-07-25 09:56:50*
%MOMM*%
%LPD*%
G01*
G04 APERTURE LIST*
G04 Aperture macros list*
%AMRotRect*
0 Rectangle, with rotation*
0 The origin of the aperture is its center*
0 $1 length*
0 $2 width*
0 $3 Rotation angle, in degrees counterclockwise*
0 Add horizontal line*
21,1,$1,$2,0,0,$3*%
G04 Aperture macros list end*
%ADD10RotRect,0.279400X1.346200X45.000000*%
%ADD11RotRect,0.279400X1.346200X315.000000*%
G04 APERTURE END LIST*
D10*
%TO.C,U1*%
X120971651Y-84334175D03*
X120618098Y-84687728D03*
X120264544Y-85041282D03*
X119910991Y-85394835D03*
X119557437Y-85748389D03*
X119203884Y-86101942D03*
X118850331Y-86455495D03*
X118496777Y-86809049D03*
X118143224Y-87162602D03*
X117789670Y-87516156D03*
X117436117Y-87869709D03*
X117082564Y-88223262D03*
X116729010Y-88576816D03*
X116375457Y-88930369D03*
X116021903Y-89283923D03*
X115668350Y-89637476D03*
D11*
X115668350Y-92362524D03*
X116021903Y-92716077D03*
X116375457Y-93069631D03*
X116729010Y-93423184D03*
X117082564Y-93776738D03*
X117436117Y-94130291D03*
X117789670Y-94483844D03*
X118143224Y-94837398D03*
X118496777Y-95190951D03*
X118850331Y-95544505D03*
X119203884Y-95898058D03*
X119557437Y-96251611D03*
X119910991Y-96605165D03*
X120264544Y-96958718D03*
X120618098Y-97312272D03*
X120971651Y-97665825D03*
D10*
X123696699Y-97665825D03*
X124050252Y-97312272D03*
X124403806Y-96958718D03*
X124757359Y-96605165D03*
X125110913Y-96251611D03*
X125464466Y-95898058D03*
X125818019Y-95544505D03*
X126171573Y-95190951D03*
X126525126Y-94837398D03*
X126878680Y-94483844D03*
X127232233Y-94130291D03*
X127585786Y-93776738D03*
X127939340Y-93423184D03*
X128292893Y-93069631D03*
X128646447Y-92716077D03*
X129000000Y-92362524D03*
D11*
X129000000Y-89637476D03*
X128646447Y-89283923D03*
X128292893Y-88930369D03*
X127939340Y-88576816D03*
X127585786Y-88223262D03*
X127232233Y-87869709D03*
X126878680Y-87516156D03*
X126525126Y-87162602D03*
X126171573Y-86809049D03*
X125818019Y-86455495D03*
X125464466Y-86101942D03*
X125110913Y-85748389D03*
X124757359Y-85394835D03*
X124403806Y-85041282D03*
X124050252Y-84687728D03*
X123696699Y-84334175D03*
%TD*%
M02*
