M48
; DRILL file {KiCad 7.0.5} date Tue Jul 25 12:06:10 2023
; FORMAT={-:-/ absolute / inch / decimal}
; #@! TF.CreationDate,2023-07-25T12:06:10-05:00
; #@! TF.GenerationSoftware,Kicad,Pcbnew,7.0.5
; #@! TF.FileFunction,Plated,1,2,PTH
FMAT,2
INCH
; #@! TA.AperFunction,Plated,PTH,ViaDrill
T1C0.0157
; #@! TA.AperFunction,Plated,PTH,ComponentDrill
T2C0.0394
%
G90
G05
T1
X4.464Y-3.1
X4.476Y-3.498
X4.484Y-3.004
X4.54Y-3.31
X4.549Y-3.228
X4.585Y-4.305
X4.59Y-3.94
X4.62Y-4.36
X4.64Y-3.99
X4.68Y-2.6
X4.68Y-2.945
X4.68Y-3.02
X4.6928Y-2.795
X4.775Y-2.895
X4.8135Y-3.15
X4.8749Y-3.23
X4.8755Y-3.135
X4.885Y-3.079
X4.89Y-3.009
X4.9135Y-2.9339
X4.92Y-3.05
X4.942Y-2.968
X5.091Y-4.103
X5.126Y-3.304
X5.1295Y-3.845
X5.1383Y-4.0955
X5.155Y-3.485
T2
X4.3649Y-2.0432
X4.3649Y-2.1432
X4.3649Y-2.2432
X4.3649Y-2.3432
X4.3649Y-2.4432
X4.3649Y-2.5432
X4.3649Y-2.6432
X4.3649Y-2.7432
X4.3649Y-2.8432
X4.3649Y-2.9432
X4.3649Y-3.0432
X4.3649Y-3.1432
X4.3649Y-3.2432
X4.3649Y-3.3432
X4.3649Y-3.4432
X4.3649Y-3.5432
X4.3649Y-3.6432
X4.3649Y-3.7432
X4.3649Y-3.8432
X4.3649Y-3.9432
X4.3649Y-4.0432
X4.3649Y-4.1432
X4.3649Y-4.2432
X4.3649Y-4.3432
X4.3649Y-4.4432
X4.3649Y-4.5432
X4.3649Y-4.6432
X4.3649Y-4.7432
X4.3649Y-4.8432
X4.3649Y-4.9432
X4.3649Y-5.0432
X4.3649Y-5.1432
X5.2429Y-2.0432
X5.2429Y-2.1432
X5.2429Y-2.2432
X5.2429Y-2.3432
X5.2429Y-2.4432
X5.2429Y-2.5432
X5.2429Y-2.6432
X5.2429Y-2.7432
X5.2429Y-2.8432
X5.2429Y-2.9432
X5.2429Y-3.0432
X5.2429Y-3.1432
X5.2429Y-3.2432
X5.2429Y-3.3432
X5.2429Y-3.4432
X5.2429Y-3.5432
X5.2429Y-3.6432
X5.2429Y-3.7432
X5.2429Y-3.8432
X5.2429Y-3.9432
X5.2429Y-4.0432
X5.2429Y-4.1432
X5.2429Y-4.2432
X5.2429Y-4.3432
X5.2429Y-4.4432
X5.2429Y-4.5432
X5.2429Y-4.6432
X5.2429Y-4.7432
X5.2429Y-4.8432
X5.2429Y-4.9432
X5.2429Y-5.0432
X5.2429Y-5.1432
T0
M30
