%TF.GenerationSoftware,KiCad,Pcbnew,7.0.5*%
%TF.CreationDate,2023-07-25T09:56:50-05:00*%
%TF.ProjectId,AcoplePic32,41636f70-6c65-4506-9963-33322e6b6963,rev?*%
%TF.SameCoordinates,Original*%
%TF.FileFunction,Soldermask,Bot*%
%TF.FilePolarity,Negative*%
%FSLAX46Y46*%
G04 Gerber Fmt 4.6, Leading zero omitted, Abs format (unit mm)*
G04 Created by KiCad (PCBNEW 7.0.5) date 2023-07-25 09:56:50*
%MOMM*%
%LPD*%
G01*
G04 APERTURE LIST*
G04 Aperture macros list*
%AMRoundRect*
0 Rectangle with rounded corners*
0 $1 Rounding radius*
0 $2 $3 $4 $5 $6 $7 $8 $9 X,Y pos of 4 corners*
0 Add a 4 corners polygon primitive as box body*
4,1,4,$2,$3,$4,$5,$6,$7,$8,$9,$2,$3,0*
0 Add four circle primitives for the rounded corners*
1,1,$1+$1,$2,$3*
1,1,$1+$1,$4,$5*
1,1,$1+$1,$6,$7*
1,1,$1+$1,$8,$9*
0 Add four rect primitives between the rounded corners*
20,1,$1+$1,$2,$3,$4,$5,0*
20,1,$1+$1,$4,$5,$6,$7,0*
20,1,$1+$1,$6,$7,$8,$9,0*
20,1,$1+$1,$8,$9,$2,$3,0*%
G04 Aperture macros list end*
%ADD10R,1.700000X1.700000*%
%ADD11O,1.700000X1.700000*%
%ADD12RoundRect,0.100000X0.217500X0.100000X-0.217500X0.100000X-0.217500X-0.100000X0.217500X-0.100000X0*%
%ADD13RoundRect,0.250000X-0.400000X-0.625000X0.400000X-0.625000X0.400000X0.625000X-0.400000X0.625000X0*%
%ADD14RoundRect,0.237500X-0.250000X-0.237500X0.250000X-0.237500X0.250000X0.237500X-0.250000X0.237500X0*%
%ADD15RoundRect,0.250000X0.250000X0.250000X-0.250000X0.250000X-0.250000X-0.250000X0.250000X-0.250000X0*%
G04 APERTURE END LIST*
D10*
%TO.C,J1*%
X110869709Y-51898058D03*
D11*
X110869709Y-54438058D03*
X110869709Y-56978058D03*
X110869709Y-59518058D03*
X110869709Y-62058058D03*
X110869709Y-64598058D03*
X110869709Y-67138058D03*
X110869709Y-69678058D03*
X110869709Y-72218058D03*
X110869709Y-74758058D03*
X110869709Y-77298058D03*
X110869709Y-79838058D03*
X110869709Y-82378058D03*
X110869709Y-84918058D03*
X110869709Y-87458058D03*
X110869709Y-89998058D03*
X110869709Y-92538058D03*
X110869709Y-95078058D03*
X110869709Y-97618058D03*
X110869709Y-100158058D03*
X110869709Y-102698058D03*
X110869709Y-105238058D03*
X110869709Y-107778058D03*
X110869709Y-110318058D03*
X110869709Y-112858058D03*
X110869709Y-115398058D03*
X110869709Y-117938058D03*
X110869709Y-120478058D03*
X110869709Y-123018058D03*
X110869709Y-125558058D03*
X110869709Y-128098058D03*
X110869709Y-130638058D03*
%TD*%
%TO.C,J3*%
X133169709Y-130638058D03*
X133169709Y-128098058D03*
X133169709Y-125558058D03*
X133169709Y-123018058D03*
X133169709Y-120478058D03*
X133169709Y-117938058D03*
X133169709Y-115398058D03*
X133169709Y-112858058D03*
X133169709Y-110318058D03*
X133169709Y-107778058D03*
X133169709Y-105238058D03*
X133169709Y-102698058D03*
X133169709Y-100158058D03*
X133169709Y-97618058D03*
X133169709Y-95078058D03*
X133169709Y-92538058D03*
X133169709Y-89998058D03*
X133169709Y-87458058D03*
X133169709Y-84918058D03*
X133169709Y-82378058D03*
X133169709Y-79838058D03*
X133169709Y-77298058D03*
X133169709Y-74758058D03*
X133169709Y-72218058D03*
X133169709Y-69678058D03*
X133169709Y-67138058D03*
X133169709Y-64598058D03*
X133169709Y-62058058D03*
X133169709Y-59518058D03*
X133169709Y-56978058D03*
X133169709Y-54438058D03*
D10*
X133169709Y-51898058D03*
%TD*%
D12*
%TO.C,R3*%
X117247500Y-70993000D03*
X116432500Y-70993000D03*
%TD*%
D13*
%TO.C,R1*%
X126897800Y-107847800D03*
X129997800Y-107847800D03*
%TD*%
D14*
%TO.C,R2*%
X127560700Y-110898300D03*
X129385700Y-110898300D03*
%TD*%
D15*
%TO.C,D1*%
X118090000Y-67691000D03*
X115590000Y-67691000D03*
%TD*%
M02*
