%TF.GenerationSoftware,KiCad,Pcbnew,7.0.5*%
%TF.CreationDate,2023-08-28T12:49:26-05:00*%
%TF.ProjectId,Esquema_CBX_Rex,45737175-656d-4615-9f43-42585f526578,rev?*%
%TF.SameCoordinates,Original*%
%TF.FileFunction,Soldermask,Bot*%
%TF.FilePolarity,Negative*%
%FSLAX46Y46*%
G04 Gerber Fmt 4.6, Leading zero omitted, Abs format (unit mm)*
G04 Created by KiCad (PCBNEW 7.0.5) date 2023-08-28 12:49:26*
%MOMM*%
%LPD*%
G01*
G04 APERTURE LIST*
G04 Aperture macros list*
%AMRoundRect*
0 Rectangle with rounded corners*
0 $1 Rounding radius*
0 $2 $3 $4 $5 $6 $7 $8 $9 X,Y pos of 4 corners*
0 Add a 4 corners polygon primitive as box body*
4,1,4,$2,$3,$4,$5,$6,$7,$8,$9,$2,$3,0*
0 Add four circle primitives for the rounded corners*
1,1,$1+$1,$2,$3*
1,1,$1+$1,$4,$5*
1,1,$1+$1,$6,$7*
1,1,$1+$1,$8,$9*
0 Add four rect primitives between the rounded corners*
20,1,$1+$1,$2,$3,$4,$5,0*
20,1,$1+$1,$4,$5,$6,$7,0*
20,1,$1+$1,$6,$7,$8,$9,0*
20,1,$1+$1,$8,$9,$2,$3,0*%
G04 Aperture macros list end*
%ADD10C,3.000000*%
%ADD11C,1.600200*%
%ADD12C,2.300000*%
%ADD13R,2.000000X2.000000*%
%ADD14C,2.000000*%
%ADD15R,2.400000X2.400000*%
%ADD16C,2.400000*%
%ADD17R,1.700000X1.700000*%
%ADD18O,1.700000X1.700000*%
%ADD19C,1.701800*%
%ADD20C,2.550000*%
%ADD21R,3.500000X3.500000*%
%ADD22RoundRect,0.750000X-1.000000X0.750000X-1.000000X-0.750000X1.000000X-0.750000X1.000000X0.750000X0*%
%ADD23RoundRect,0.875000X-0.875000X0.875000X-0.875000X-0.875000X0.875000X-0.875000X0.875000X0.875000X0*%
%ADD24C,3.708400*%
%ADD25C,2.500000*%
%ADD26RoundRect,0.237500X0.250000X0.237500X-0.250000X0.237500X-0.250000X-0.237500X0.250000X-0.237500X0*%
%ADD27RoundRect,0.250000X-0.412500X-1.100000X0.412500X-1.100000X0.412500X1.100000X-0.412500X1.100000X0*%
%ADD28RoundRect,0.250000X0.625000X-0.400000X0.625000X0.400000X-0.625000X0.400000X-0.625000X-0.400000X0*%
%ADD29RoundRect,0.250000X-1.100000X0.412500X-1.100000X-0.412500X1.100000X-0.412500X1.100000X0.412500X0*%
%ADD30RoundRect,0.250000X0.400000X0.625000X-0.400000X0.625000X-0.400000X-0.625000X0.400000X-0.625000X0*%
%ADD31RoundRect,0.250000X-0.625000X0.400000X-0.625000X-0.400000X0.625000X-0.400000X0.625000X0.400000X0*%
%ADD32RoundRect,0.250000X-0.650000X0.412500X-0.650000X-0.412500X0.650000X-0.412500X0.650000X0.412500X0*%
%ADD33RoundRect,0.250000X-0.400000X-0.625000X0.400000X-0.625000X0.400000X0.625000X-0.400000X0.625000X0*%
%ADD34RoundRect,0.250000X1.100000X-0.412500X1.100000X0.412500X-1.100000X0.412500X-1.100000X-0.412500X0*%
%ADD35RoundRect,0.160000X-0.160000X0.197500X-0.160000X-0.197500X0.160000X-0.197500X0.160000X0.197500X0*%
%ADD36RoundRect,0.250001X-0.499999X-0.924999X0.499999X-0.924999X0.499999X0.924999X-0.499999X0.924999X0*%
%ADD37R,1.700000X3.300000*%
%ADD38RoundRect,0.250001X0.499999X0.924999X-0.499999X0.924999X-0.499999X-0.924999X0.499999X-0.924999X0*%
%ADD39RoundRect,0.250000X-0.350000X-0.450000X0.350000X-0.450000X0.350000X0.450000X-0.350000X0.450000X0*%
%ADD40RoundRect,0.249999X1.425001X-0.450001X1.425001X0.450001X-1.425001X0.450001X-1.425001X-0.450001X0*%
%ADD41RoundRect,0.250000X0.337500X0.475000X-0.337500X0.475000X-0.337500X-0.475000X0.337500X-0.475000X0*%
%ADD42RoundRect,0.237500X0.237500X-0.250000X0.237500X0.250000X-0.237500X0.250000X-0.237500X-0.250000X0*%
%ADD43RoundRect,0.250000X0.650000X-0.412500X0.650000X0.412500X-0.650000X0.412500X-0.650000X-0.412500X0*%
%ADD44RoundRect,0.237500X-0.237500X0.250000X-0.237500X-0.250000X0.237500X-0.250000X0.237500X0.250000X0*%
%ADD45RoundRect,0.250000X-0.337500X-0.475000X0.337500X-0.475000X0.337500X0.475000X-0.337500X0.475000X0*%
G04 APERTURE END LIST*
D10*
%TO.C,REF\u002A\u002A*%
X203454000Y-112903000D03*
%TD*%
D11*
%TO.C,J16*%
X67057000Y-93472000D03*
X67057000Y-97282000D03*
X67057000Y-101092000D03*
X67057000Y-104902000D03*
X67057000Y-108712000D03*
X67057000Y-112522000D03*
%TD*%
D12*
%TO.C,REF\u002A\u002A*%
X187579000Y-97155000D03*
%TD*%
D13*
%TO.C,C14*%
X74295000Y-35560000D03*
D14*
X79295000Y-35560000D03*
%TD*%
D15*
%TO.C,C24*%
X130683000Y-39370000D03*
D16*
X125683000Y-39370000D03*
%TD*%
D17*
%TO.C,J20*%
X74676000Y-143764000D03*
D18*
X74676000Y-146304000D03*
%TD*%
D19*
%TO.C,J21*%
X67300000Y-65550000D03*
X67300000Y-69360000D03*
X67300000Y-73170000D03*
%TD*%
D15*
%TO.C,C44*%
X78740000Y-62150000D03*
D16*
X78740000Y-57150000D03*
%TD*%
D17*
%TO.C,J3*%
X158500000Y-101000000D03*
D18*
X155960000Y-101000000D03*
X153420000Y-101000000D03*
%TD*%
D20*
%TO.C,J8*%
X201168000Y-42385000D03*
X196408000Y-42385000D03*
X198788000Y-44765000D03*
X198788000Y-40005000D03*
%TD*%
D17*
%TO.C,J1*%
X144478377Y-143236327D03*
D18*
X144478377Y-140696327D03*
X144478377Y-138156327D03*
X144478377Y-135616327D03*
X144478377Y-133076327D03*
X144478377Y-130536327D03*
X144478377Y-127996327D03*
X144478377Y-125456327D03*
X144478377Y-122916327D03*
X144478377Y-120376327D03*
X144478377Y-117836327D03*
X144478377Y-115296327D03*
X144478377Y-112756327D03*
X144478377Y-110216327D03*
X144478377Y-107676327D03*
X144478377Y-105136327D03*
X144478377Y-102596327D03*
X144478377Y-100056327D03*
X144478377Y-97516327D03*
X144478377Y-94976327D03*
X144478377Y-92436327D03*
X144478377Y-89896327D03*
X144478377Y-87356327D03*
X144478377Y-84816327D03*
X144478377Y-82276327D03*
X144478377Y-79736327D03*
X144478377Y-77196327D03*
X144478377Y-74656327D03*
X144478377Y-72116327D03*
X144478377Y-69576327D03*
X144478377Y-67036327D03*
X144478377Y-64496327D03*
%TD*%
D20*
%TO.C,J9*%
X175260000Y-73025000D03*
X170500000Y-73025000D03*
X172880000Y-75405000D03*
X172880000Y-70645000D03*
%TD*%
%TO.C,J11*%
X173228000Y-95504000D03*
X168468000Y-95504000D03*
X170848000Y-97884000D03*
X170848000Y-93124000D03*
%TD*%
D12*
%TO.C,*%
X134112000Y-104648000D03*
%TD*%
D21*
%TO.C,J5*%
X147257500Y-45800000D03*
D22*
X147257500Y-39800000D03*
D23*
X142557500Y-42800000D03*
%TD*%
D12*
%TO.C,*%
X204597000Y-120904000D03*
%TD*%
D11*
%TO.C,J4*%
X173045000Y-149330000D03*
X170275001Y-149330000D03*
X167505001Y-149330000D03*
X164735002Y-149330000D03*
X161965002Y-149330000D03*
X171660002Y-151870000D03*
X168890002Y-151870000D03*
X166120000Y-151870000D03*
X163350000Y-151870000D03*
D24*
X155010002Y-150600000D03*
X180000000Y-150600000D03*
%TD*%
D17*
%TO.C,J12*%
X160782000Y-67559000D03*
D18*
X160782000Y-70099000D03*
%TD*%
D17*
%TO.C,J19*%
X106725000Y-104700000D03*
D18*
X109265000Y-104700000D03*
X111805000Y-104700000D03*
X114345000Y-104700000D03*
X116885000Y-104700000D03*
%TD*%
D12*
%TO.C,*%
X203708000Y-34036000D03*
%TD*%
D15*
%TO.C,C34*%
X109444785Y-148590000D03*
D16*
X114444785Y-148590000D03*
%TD*%
D20*
%TO.C,J10*%
X179865000Y-57945000D03*
X184625000Y-57945000D03*
X182245000Y-55565000D03*
X182245000Y-60325000D03*
%TD*%
D19*
%TO.C,J22*%
X67310000Y-52705000D03*
X67310000Y-56515000D03*
X67310000Y-60325000D03*
%TD*%
D25*
%TO.C,SW2*%
X164719000Y-35560000D03*
X169545000Y-35560000D03*
X174371000Y-35560000D03*
%TD*%
D12*
%TO.C,*%
X185000000Y-156000000D03*
%TD*%
D11*
%TO.C,J17*%
X200208700Y-81323798D03*
X200208700Y-85133798D03*
%TD*%
D17*
%TO.C,J31*%
X204470000Y-90170000D03*
D18*
X201930000Y-90170000D03*
X199390000Y-90170000D03*
X196850000Y-90170000D03*
X194310000Y-90170000D03*
X191770000Y-90170000D03*
X189230000Y-90170000D03*
X186690000Y-90170000D03*
%TD*%
D17*
%TO.C,J18*%
X155860000Y-137800000D03*
D18*
X155860000Y-140340000D03*
X158400000Y-137800000D03*
X158400000Y-140340000D03*
X160940000Y-137800000D03*
X160940000Y-140340000D03*
X163480000Y-137800000D03*
X163480000Y-140340000D03*
X166020000Y-137800000D03*
X166020000Y-140340000D03*
X168560000Y-137800000D03*
X168560000Y-140340000D03*
X171100000Y-137800000D03*
X171100000Y-140340000D03*
X173640000Y-137800000D03*
X173640000Y-140340000D03*
%TD*%
D20*
%TO.C,J7*%
X189390000Y-75405000D03*
X189390000Y-70645000D03*
X187010000Y-73025000D03*
X191770000Y-73025000D03*
%TD*%
D11*
%TO.C,J15*%
X66422000Y-133512000D03*
X66422000Y-137322000D03*
X66422000Y-141132000D03*
X66422000Y-144942000D03*
X66422000Y-148752000D03*
X66422000Y-152562000D03*
%TD*%
D13*
%TO.C,C29*%
X78740000Y-119380000D03*
D14*
X78740000Y-114380000D03*
%TD*%
D12*
%TO.C,*%
X60960000Y-155956000D03*
%TD*%
D19*
%TO.C,J13*%
X67310000Y-40132000D03*
X67310000Y-43942000D03*
X67310000Y-47752000D03*
%TD*%
D13*
%TO.C,C39*%
X76835000Y-86360000D03*
D14*
X71835000Y-86360000D03*
%TD*%
D12*
%TO.C,*%
X62992000Y-34544000D03*
%TD*%
D20*
%TO.C,J6*%
X201008000Y-58895000D03*
X196248000Y-58895000D03*
X198628000Y-61275000D03*
X198628000Y-56515000D03*
%TD*%
D11*
%TO.C,J14*%
X118745000Y-32385000D03*
X114935000Y-32385000D03*
X111125000Y-32385000D03*
X107315000Y-32385000D03*
X103505000Y-32385000D03*
X99695000Y-32385000D03*
%TD*%
D17*
%TO.C,J2*%
X122126377Y-64491327D03*
D18*
X122126377Y-67031327D03*
X122126377Y-69571327D03*
X122126377Y-72111327D03*
X122126377Y-74651327D03*
X122126377Y-77191327D03*
X122126377Y-79731327D03*
X122126377Y-82271327D03*
X122126377Y-84811327D03*
X122126377Y-87351327D03*
X122126377Y-89891327D03*
X122126377Y-92431327D03*
X122126377Y-94971327D03*
X122126377Y-97511327D03*
X122126377Y-100051327D03*
X122126377Y-102591327D03*
X122126377Y-105131327D03*
X122126377Y-107671327D03*
X122126377Y-110211327D03*
X122126377Y-112751327D03*
X122126377Y-115291327D03*
X122126377Y-117831327D03*
X122126377Y-120371327D03*
X122126377Y-122911327D03*
X122126377Y-125451327D03*
X122126377Y-127991327D03*
X122126377Y-130531327D03*
X122126377Y-133071327D03*
X122126377Y-135611327D03*
X122126377Y-138151327D03*
X122126377Y-140691327D03*
X122126377Y-143231327D03*
%TD*%
D26*
%TO.C,R78*%
X128547500Y-90170000D03*
X126722500Y-90170000D03*
%TD*%
D27*
%TO.C,C38*%
X92417500Y-118110000D03*
X95542500Y-118110000D03*
%TD*%
D26*
%TO.C,R83*%
X136247500Y-116840000D03*
X134422500Y-116840000D03*
%TD*%
%TO.C,R82*%
X136167500Y-119380000D03*
X134342500Y-119380000D03*
%TD*%
D28*
%TO.C,R68*%
X112000000Y-90750000D03*
X112000000Y-87650000D03*
%TD*%
D29*
%TO.C,C52*%
X128905000Y-116255000D03*
X128905000Y-119380000D03*
%TD*%
D28*
%TO.C,R45*%
X114554000Y-136678000D03*
X114554000Y-133578000D03*
%TD*%
D30*
%TO.C,R58*%
X112850000Y-115000000D03*
X109750000Y-115000000D03*
%TD*%
D31*
%TO.C,R55*%
X115000000Y-124450000D03*
X115000000Y-127550000D03*
%TD*%
D32*
%TO.C,C55*%
X144700000Y-53837500D03*
X144700000Y-56962500D03*
%TD*%
D33*
%TO.C,R44*%
X100550000Y-58800000D03*
X103650000Y-58800000D03*
%TD*%
%TO.C,R63*%
X100750000Y-99100000D03*
X103850000Y-99100000D03*
%TD*%
D34*
%TO.C,C51*%
X128905000Y-113665000D03*
X128905000Y-110540000D03*
%TD*%
D35*
%TO.C,R49*%
X116840000Y-121322500D03*
X116840000Y-122517500D03*
%TD*%
D33*
%TO.C,R28*%
X112750000Y-70866000D03*
X115850000Y-70866000D03*
%TD*%
D28*
%TO.C,R67*%
X108458000Y-77496000D03*
X108458000Y-74396000D03*
%TD*%
D27*
%TO.C,C54*%
X134035000Y-113030000D03*
X137160000Y-113030000D03*
%TD*%
D28*
%TO.C,R62*%
X108100000Y-98350000D03*
X108100000Y-95250000D03*
%TD*%
D31*
%TO.C,R57*%
X110100000Y-130050000D03*
X110100000Y-133150000D03*
%TD*%
D36*
%TO.C,C6*%
X161570000Y-111506000D03*
X164820000Y-111506000D03*
%TD*%
D33*
%TO.C,R29*%
X112242000Y-68072000D03*
X115342000Y-68072000D03*
%TD*%
D27*
%TO.C,C53*%
X134035000Y-109220000D03*
X137160000Y-109220000D03*
%TD*%
D37*
%TO.C,D1*%
X84455000Y-49320000D03*
X84455000Y-54820000D03*
%TD*%
D28*
%TO.C,R73*%
X108900000Y-90750000D03*
X108900000Y-87650000D03*
%TD*%
D30*
%TO.C,R13*%
X168301000Y-53975000D03*
X165201000Y-53975000D03*
%TD*%
D38*
%TO.C,C10*%
X171625000Y-111500000D03*
X168375000Y-111500000D03*
%TD*%
D31*
%TO.C,R42*%
X105400000Y-66750000D03*
X105400000Y-69850000D03*
%TD*%
D28*
%TO.C,R70*%
X103400000Y-89750000D03*
X103400000Y-86650000D03*
%TD*%
D31*
%TO.C,R72*%
X102400000Y-92650000D03*
X102400000Y-95750000D03*
%TD*%
D27*
%TO.C,C50*%
X125780000Y-93345000D03*
X128905000Y-93345000D03*
%TD*%
D34*
%TO.C,C30*%
X88900000Y-148882500D03*
X88900000Y-145757500D03*
%TD*%
D39*
%TO.C,R10*%
X167402000Y-43180000D03*
X169402000Y-43180000D03*
%TD*%
D31*
%TO.C,R69*%
X110871000Y-95351000D03*
X110871000Y-98451000D03*
%TD*%
D40*
%TO.C,R12*%
X170053000Y-51691000D03*
X170053000Y-45591000D03*
%TD*%
D28*
%TO.C,R54*%
X112100000Y-127550000D03*
X112100000Y-124450000D03*
%TD*%
D41*
%TO.C,C23*%
X89937500Y-41275000D03*
X87862500Y-41275000D03*
%TD*%
D42*
%TO.C,R81*%
X125730000Y-118110000D03*
X125730000Y-116285000D03*
%TD*%
D28*
%TO.C,R46*%
X117602000Y-140234000D03*
X117602000Y-137134000D03*
%TD*%
%TO.C,R39*%
X104100000Y-64450000D03*
X104100000Y-61350000D03*
%TD*%
D31*
%TO.C,R7*%
X162814000Y-45440000D03*
X162814000Y-48540000D03*
%TD*%
D41*
%TO.C,C35*%
X93747500Y-123970000D03*
X91672500Y-123970000D03*
%TD*%
D43*
%TO.C,C1*%
X148000000Y-56962500D03*
X148000000Y-53837500D03*
%TD*%
D33*
%TO.C,R31*%
X92650000Y-71150000D03*
X95750000Y-71150000D03*
%TD*%
D41*
%TO.C,C42*%
X97737500Y-106700000D03*
X95662500Y-106700000D03*
%TD*%
D44*
%TO.C,R80*%
X125730000Y-111205000D03*
X125730000Y-113030000D03*
%TD*%
D30*
%TO.C,R53*%
X112850000Y-119600000D03*
X109750000Y-119600000D03*
%TD*%
D35*
%TO.C,R51*%
X119380000Y-121322500D03*
X119380000Y-122517500D03*
%TD*%
D33*
%TO.C,R32*%
X112242000Y-64516000D03*
X115342000Y-64516000D03*
%TD*%
D27*
%TO.C,C41*%
X91313000Y-96520000D03*
X94438000Y-96520000D03*
%TD*%
D31*
%TO.C,R30*%
X100850000Y-65750000D03*
X100850000Y-68850000D03*
%TD*%
D33*
%TO.C,R48*%
X102590000Y-135890000D03*
X105690000Y-135890000D03*
%TD*%
%TO.C,R71*%
X106207500Y-83185000D03*
X109307500Y-83185000D03*
%TD*%
D28*
%TO.C,R14*%
X177292000Y-52731000D03*
X177292000Y-49631000D03*
%TD*%
D30*
%TO.C,R74*%
X103850000Y-101700000D03*
X100750000Y-101700000D03*
%TD*%
D31*
%TO.C,R1*%
X159512000Y-40106000D03*
X159512000Y-43206000D03*
%TD*%
D45*
%TO.C,C26*%
X112627500Y-45720000D03*
X114702500Y-45720000D03*
%TD*%
D34*
%TO.C,C49*%
X137795000Y-65405000D03*
X137795000Y-62280000D03*
%TD*%
D44*
%TO.C,R79*%
X133985000Y-62310000D03*
X133985000Y-64135000D03*
%TD*%
M02*
