%TF.GenerationSoftware,KiCad,Pcbnew,7.0.5*%
%TF.CreationDate,2023-08-28T12:49:26-05:00*%
%TF.ProjectId,Esquema_CBX_Rex,45737175-656d-4615-9f43-42585f526578,rev?*%
%TF.SameCoordinates,Original*%
%TF.FileFunction,Profile,NP*%
%FSLAX46Y46*%
G04 Gerber Fmt 4.6, Leading zero omitted, Abs format (unit mm)*
G04 Created by KiCad (PCBNEW 7.0.5) date 2023-08-28 12:49:26*
%MOMM*%
%LPD*%
G01*
G04 APERTURE LIST*
%TA.AperFunction,Profile*%
%ADD10C,0.050000*%
%TD*%
G04 APERTURE END LIST*
D10*
X205740000Y-123190000D02*
X189230000Y-123190000D01*
X186690000Y-158750000D02*
X187960000Y-157480000D01*
X59690000Y-158750000D02*
X186690000Y-158750000D01*
X64135000Y-30000000D02*
X58420000Y-35000000D01*
X83000000Y-30000000D02*
X86995000Y-26670000D01*
X187960000Y-157480000D02*
X187960000Y-124460000D01*
X125730000Y-26670000D02*
X131445000Y-31750000D01*
X58420000Y-157480000D02*
X59690000Y-158750000D01*
X88265000Y-26670000D02*
X86995000Y-26670000D01*
X131445000Y-31750000D02*
X205740000Y-31750000D01*
X207010000Y-121920000D02*
X207010000Y-33020000D01*
X58420000Y-35000000D02*
X58420000Y-44450000D01*
X69850000Y-30000000D02*
X83000000Y-30000000D01*
X69850000Y-30000000D02*
X64135000Y-30000000D01*
X207010000Y-121920000D02*
X205740000Y-123190000D01*
X102870000Y-26670000D02*
X88265000Y-26670000D01*
X205740000Y-31750000D02*
X207010000Y-33020000D01*
X102870000Y-26670000D02*
X125730000Y-26670000D01*
X189230000Y-123190000D02*
X187960000Y-124460000D01*
X58420000Y-44450000D02*
X58420000Y-157480000D01*
M02*
