%TF.GenerationSoftware,KiCad,Pcbnew,7.0.1*%
%TF.CreationDate,2023-04-10T20:01:37-05:00*%
%TF.ProjectId,Esquema_CBX_Rex,45737175-656d-4615-9f43-42585f526578,rev?*%
%TF.SameCoordinates,Original*%
%TF.FileFunction,Drillmap*%
%TF.FilePolarity,Positive*%
%FSLAX45Y45*%
G04 Gerber Fmt 4.5, Leading zero omitted, Abs format (unit mm)*
G04 Created by KiCad (PCBNEW 7.0.1) date 2023-04-10 20:01:37*
%MOMM*%
%LPD*%
G01*
G04 APERTURE LIST*
%ADD10C,0.050000*%
%ADD11C,0.200000*%
%ADD12C,0.220000*%
G04 APERTURE END LIST*
D10*
X20574000Y-12319000D02*
X18923000Y-12319000D01*
X18669000Y-15875000D02*
X18796000Y-15748000D01*
X5969000Y-15875000D02*
X18669000Y-15875000D01*
X6413500Y-3000000D02*
X5842000Y-3500000D01*
X8300000Y-3000000D02*
X8699500Y-2667000D01*
X18796000Y-15748000D02*
X18796000Y-12446000D01*
X12573000Y-2667000D02*
X13144500Y-3175000D01*
X5842000Y-15748000D02*
X5969000Y-15875000D01*
X8826500Y-2667000D02*
X8699500Y-2667000D01*
X13144500Y-3175000D02*
X20574000Y-3175000D01*
X20701000Y-12192000D02*
X20701000Y-3302000D01*
X5842000Y-3500000D02*
X5842000Y-4445000D01*
X6985000Y-3000000D02*
X8300000Y-3000000D01*
X6985000Y-3000000D02*
X6413500Y-3000000D01*
X20701000Y-12192000D02*
X20574000Y-12319000D01*
X10287000Y-2667000D02*
X8826500Y-2667000D01*
X20574000Y-3175000D02*
X20701000Y-3302000D01*
X10287000Y-2667000D02*
X12573000Y-2667000D01*
X18923000Y-12319000D02*
X18796000Y-12446000D01*
X5842000Y-4445000D02*
X5842000Y-15748000D01*
D11*
D12*
X5986000Y-15485600D02*
X6206000Y-15705600D01*
X6206000Y-15485600D02*
X5986000Y-15705600D01*
X6189200Y-3344400D02*
X6409200Y-3564400D01*
X6409200Y-3344400D02*
X6189200Y-3564400D01*
X13301200Y-10354800D02*
X13521200Y-10574800D01*
X13521200Y-10354800D02*
X13301200Y-10574800D01*
X18390000Y-15490000D02*
X18610000Y-15710000D01*
X18610000Y-15490000D02*
X18390000Y-15710000D01*
X18647900Y-9605500D02*
X18867900Y-9825500D01*
X18867900Y-9605500D02*
X18647900Y-9825500D01*
X20210000Y-3319000D02*
X20430000Y-3539000D01*
X20430000Y-3319000D02*
X20210000Y-3539000D01*
X20235400Y-11180300D02*
X20455400Y-11400300D01*
X20455400Y-11180300D02*
X20235400Y-11400300D01*
X20390000Y-11990000D02*
X20610000Y-12210000D01*
X20610000Y-11990000D02*
X20390000Y-12210000D01*
D11*
X6087119Y-16190024D02*
X6087119Y-15990024D01*
X6087119Y-15990024D02*
X6134738Y-15990024D01*
X6134738Y-15990024D02*
X6163309Y-15999548D01*
X6163309Y-15999548D02*
X6182357Y-16018595D01*
X6182357Y-16018595D02*
X6191881Y-16037643D01*
X6191881Y-16037643D02*
X6201405Y-16075738D01*
X6201405Y-16075738D02*
X6201405Y-16104309D01*
X6201405Y-16104309D02*
X6191881Y-16142405D01*
X6191881Y-16142405D02*
X6182357Y-16161452D01*
X6182357Y-16161452D02*
X6163309Y-16180500D01*
X6163309Y-16180500D02*
X6134738Y-16190024D01*
X6134738Y-16190024D02*
X6087119Y-16190024D01*
X6287119Y-16190024D02*
X6287119Y-16056690D01*
X6287119Y-16094786D02*
X6296643Y-16075738D01*
X6296643Y-16075738D02*
X6306167Y-16066214D01*
X6306167Y-16066214D02*
X6325214Y-16056690D01*
X6325214Y-16056690D02*
X6344262Y-16056690D01*
X6410928Y-16190024D02*
X6410928Y-16056690D01*
X6410928Y-15990024D02*
X6401405Y-15999548D01*
X6401405Y-15999548D02*
X6410928Y-16009071D01*
X6410928Y-16009071D02*
X6420452Y-15999548D01*
X6420452Y-15999548D02*
X6410928Y-15990024D01*
X6410928Y-15990024D02*
X6410928Y-16009071D01*
X6534738Y-16190024D02*
X6515690Y-16180500D01*
X6515690Y-16180500D02*
X6506167Y-16161452D01*
X6506167Y-16161452D02*
X6506167Y-15990024D01*
X6639500Y-16190024D02*
X6620452Y-16180500D01*
X6620452Y-16180500D02*
X6610928Y-16161452D01*
X6610928Y-16161452D02*
X6610928Y-15990024D01*
X6868071Y-16190024D02*
X6868071Y-15990024D01*
X6868071Y-15990024D02*
X6934738Y-16132881D01*
X6934738Y-16132881D02*
X7001405Y-15990024D01*
X7001405Y-15990024D02*
X7001405Y-16190024D01*
X7182357Y-16190024D02*
X7182357Y-16085262D01*
X7182357Y-16085262D02*
X7172833Y-16066214D01*
X7172833Y-16066214D02*
X7153786Y-16056690D01*
X7153786Y-16056690D02*
X7115690Y-16056690D01*
X7115690Y-16056690D02*
X7096643Y-16066214D01*
X7182357Y-16180500D02*
X7163309Y-16190024D01*
X7163309Y-16190024D02*
X7115690Y-16190024D01*
X7115690Y-16190024D02*
X7096643Y-16180500D01*
X7096643Y-16180500D02*
X7087119Y-16161452D01*
X7087119Y-16161452D02*
X7087119Y-16142405D01*
X7087119Y-16142405D02*
X7096643Y-16123357D01*
X7096643Y-16123357D02*
X7115690Y-16113833D01*
X7115690Y-16113833D02*
X7163309Y-16113833D01*
X7163309Y-16113833D02*
X7182357Y-16104309D01*
X7277595Y-16056690D02*
X7277595Y-16256690D01*
X7277595Y-16066214D02*
X7296643Y-16056690D01*
X7296643Y-16056690D02*
X7334738Y-16056690D01*
X7334738Y-16056690D02*
X7353786Y-16066214D01*
X7353786Y-16066214D02*
X7363309Y-16075738D01*
X7363309Y-16075738D02*
X7372833Y-16094786D01*
X7372833Y-16094786D02*
X7372833Y-16151928D01*
X7372833Y-16151928D02*
X7363309Y-16170976D01*
X7363309Y-16170976D02*
X7353786Y-16180500D01*
X7353786Y-16180500D02*
X7334738Y-16190024D01*
X7334738Y-16190024D02*
X7296643Y-16190024D01*
X7296643Y-16190024D02*
X7277595Y-16180500D01*
X7458548Y-16170976D02*
X7468071Y-16180500D01*
X7468071Y-16180500D02*
X7458548Y-16190024D01*
X7458548Y-16190024D02*
X7449024Y-16180500D01*
X7449024Y-16180500D02*
X7458548Y-16170976D01*
X7458548Y-16170976D02*
X7458548Y-16190024D01*
X7458548Y-16066214D02*
X7468071Y-16075738D01*
X7468071Y-16075738D02*
X7458548Y-16085262D01*
X7458548Y-16085262D02*
X7449024Y-16075738D01*
X7449024Y-16075738D02*
X7458548Y-16066214D01*
X7458548Y-16066214D02*
X7458548Y-16085262D01*
X5639500Y-16417500D02*
X5839500Y-16617500D01*
X5839500Y-16417500D02*
X5639500Y-16617500D01*
X6077595Y-16429071D02*
X6087119Y-16419548D01*
X6087119Y-16419548D02*
X6106167Y-16410024D01*
X6106167Y-16410024D02*
X6153786Y-16410024D01*
X6153786Y-16410024D02*
X6172833Y-16419548D01*
X6172833Y-16419548D02*
X6182357Y-16429071D01*
X6182357Y-16429071D02*
X6191881Y-16448119D01*
X6191881Y-16448119D02*
X6191881Y-16467167D01*
X6191881Y-16467167D02*
X6182357Y-16495738D01*
X6182357Y-16495738D02*
X6068071Y-16610024D01*
X6068071Y-16610024D02*
X6191881Y-16610024D01*
X6277595Y-16590976D02*
X6287119Y-16600500D01*
X6287119Y-16600500D02*
X6277595Y-16610024D01*
X6277595Y-16610024D02*
X6268071Y-16600500D01*
X6268071Y-16600500D02*
X6277595Y-16590976D01*
X6277595Y-16590976D02*
X6277595Y-16610024D01*
X6363309Y-16429071D02*
X6372833Y-16419548D01*
X6372833Y-16419548D02*
X6391881Y-16410024D01*
X6391881Y-16410024D02*
X6439500Y-16410024D01*
X6439500Y-16410024D02*
X6458548Y-16419548D01*
X6458548Y-16419548D02*
X6468071Y-16429071D01*
X6468071Y-16429071D02*
X6477595Y-16448119D01*
X6477595Y-16448119D02*
X6477595Y-16467167D01*
X6477595Y-16467167D02*
X6468071Y-16495738D01*
X6468071Y-16495738D02*
X6353786Y-16610024D01*
X6353786Y-16610024D02*
X6477595Y-16610024D01*
X6601405Y-16410024D02*
X6620452Y-16410024D01*
X6620452Y-16410024D02*
X6639500Y-16419548D01*
X6639500Y-16419548D02*
X6649024Y-16429071D01*
X6649024Y-16429071D02*
X6658548Y-16448119D01*
X6658548Y-16448119D02*
X6668071Y-16486214D01*
X6668071Y-16486214D02*
X6668071Y-16533833D01*
X6668071Y-16533833D02*
X6658548Y-16571928D01*
X6658548Y-16571928D02*
X6649024Y-16590976D01*
X6649024Y-16590976D02*
X6639500Y-16600500D01*
X6639500Y-16600500D02*
X6620452Y-16610024D01*
X6620452Y-16610024D02*
X6601405Y-16610024D01*
X6601405Y-16610024D02*
X6582357Y-16600500D01*
X6582357Y-16600500D02*
X6572833Y-16590976D01*
X6572833Y-16590976D02*
X6563309Y-16571928D01*
X6563309Y-16571928D02*
X6553786Y-16533833D01*
X6553786Y-16533833D02*
X6553786Y-16486214D01*
X6553786Y-16486214D02*
X6563309Y-16448119D01*
X6563309Y-16448119D02*
X6572833Y-16429071D01*
X6572833Y-16429071D02*
X6582357Y-16419548D01*
X6582357Y-16419548D02*
X6601405Y-16410024D01*
X6791881Y-16410024D02*
X6810929Y-16410024D01*
X6810929Y-16410024D02*
X6829976Y-16419548D01*
X6829976Y-16419548D02*
X6839500Y-16429071D01*
X6839500Y-16429071D02*
X6849024Y-16448119D01*
X6849024Y-16448119D02*
X6858548Y-16486214D01*
X6858548Y-16486214D02*
X6858548Y-16533833D01*
X6858548Y-16533833D02*
X6849024Y-16571928D01*
X6849024Y-16571928D02*
X6839500Y-16590976D01*
X6839500Y-16590976D02*
X6829976Y-16600500D01*
X6829976Y-16600500D02*
X6810929Y-16610024D01*
X6810929Y-16610024D02*
X6791881Y-16610024D01*
X6791881Y-16610024D02*
X6772833Y-16600500D01*
X6772833Y-16600500D02*
X6763309Y-16590976D01*
X6763309Y-16590976D02*
X6753786Y-16571928D01*
X6753786Y-16571928D02*
X6744262Y-16533833D01*
X6744262Y-16533833D02*
X6744262Y-16486214D01*
X6744262Y-16486214D02*
X6753786Y-16448119D01*
X6753786Y-16448119D02*
X6763309Y-16429071D01*
X6763309Y-16429071D02*
X6772833Y-16419548D01*
X6772833Y-16419548D02*
X6791881Y-16410024D01*
X6944262Y-16610024D02*
X6944262Y-16476690D01*
X6944262Y-16495738D02*
X6953786Y-16486214D01*
X6953786Y-16486214D02*
X6972833Y-16476690D01*
X6972833Y-16476690D02*
X7001405Y-16476690D01*
X7001405Y-16476690D02*
X7020452Y-16486214D01*
X7020452Y-16486214D02*
X7029976Y-16505262D01*
X7029976Y-16505262D02*
X7029976Y-16610024D01*
X7029976Y-16505262D02*
X7039500Y-16486214D01*
X7039500Y-16486214D02*
X7058548Y-16476690D01*
X7058548Y-16476690D02*
X7087119Y-16476690D01*
X7087119Y-16476690D02*
X7106167Y-16486214D01*
X7106167Y-16486214D02*
X7115690Y-16505262D01*
X7115690Y-16505262D02*
X7115690Y-16610024D01*
X7210929Y-16610024D02*
X7210929Y-16476690D01*
X7210929Y-16495738D02*
X7220452Y-16486214D01*
X7220452Y-16486214D02*
X7239500Y-16476690D01*
X7239500Y-16476690D02*
X7268071Y-16476690D01*
X7268071Y-16476690D02*
X7287119Y-16486214D01*
X7287119Y-16486214D02*
X7296643Y-16505262D01*
X7296643Y-16505262D02*
X7296643Y-16610024D01*
X7296643Y-16505262D02*
X7306167Y-16486214D01*
X7306167Y-16486214D02*
X7325214Y-16476690D01*
X7325214Y-16476690D02*
X7353786Y-16476690D01*
X7353786Y-16476690D02*
X7372833Y-16486214D01*
X7372833Y-16486214D02*
X7382357Y-16505262D01*
X7382357Y-16505262D02*
X7382357Y-16610024D01*
X7772833Y-16400500D02*
X7601405Y-16657643D01*
X8029976Y-16410024D02*
X8049024Y-16410024D01*
X8049024Y-16410024D02*
X8068072Y-16419548D01*
X8068072Y-16419548D02*
X8077595Y-16429071D01*
X8077595Y-16429071D02*
X8087119Y-16448119D01*
X8087119Y-16448119D02*
X8096643Y-16486214D01*
X8096643Y-16486214D02*
X8096643Y-16533833D01*
X8096643Y-16533833D02*
X8087119Y-16571928D01*
X8087119Y-16571928D02*
X8077595Y-16590976D01*
X8077595Y-16590976D02*
X8068072Y-16600500D01*
X8068072Y-16600500D02*
X8049024Y-16610024D01*
X8049024Y-16610024D02*
X8029976Y-16610024D01*
X8029976Y-16610024D02*
X8010929Y-16600500D01*
X8010929Y-16600500D02*
X8001405Y-16590976D01*
X8001405Y-16590976D02*
X7991881Y-16571928D01*
X7991881Y-16571928D02*
X7982357Y-16533833D01*
X7982357Y-16533833D02*
X7982357Y-16486214D01*
X7982357Y-16486214D02*
X7991881Y-16448119D01*
X7991881Y-16448119D02*
X8001405Y-16429071D01*
X8001405Y-16429071D02*
X8010929Y-16419548D01*
X8010929Y-16419548D02*
X8029976Y-16410024D01*
X8182357Y-16590976D02*
X8191881Y-16600500D01*
X8191881Y-16600500D02*
X8182357Y-16610024D01*
X8182357Y-16610024D02*
X8172833Y-16600500D01*
X8172833Y-16600500D02*
X8182357Y-16590976D01*
X8182357Y-16590976D02*
X8182357Y-16610024D01*
X8315691Y-16410024D02*
X8334738Y-16410024D01*
X8334738Y-16410024D02*
X8353786Y-16419548D01*
X8353786Y-16419548D02*
X8363310Y-16429071D01*
X8363310Y-16429071D02*
X8372833Y-16448119D01*
X8372833Y-16448119D02*
X8382357Y-16486214D01*
X8382357Y-16486214D02*
X8382357Y-16533833D01*
X8382357Y-16533833D02*
X8372833Y-16571928D01*
X8372833Y-16571928D02*
X8363310Y-16590976D01*
X8363310Y-16590976D02*
X8353786Y-16600500D01*
X8353786Y-16600500D02*
X8334738Y-16610024D01*
X8334738Y-16610024D02*
X8315691Y-16610024D01*
X8315691Y-16610024D02*
X8296643Y-16600500D01*
X8296643Y-16600500D02*
X8287119Y-16590976D01*
X8287119Y-16590976D02*
X8277595Y-16571928D01*
X8277595Y-16571928D02*
X8268072Y-16533833D01*
X8268072Y-16533833D02*
X8268072Y-16486214D01*
X8268072Y-16486214D02*
X8277595Y-16448119D01*
X8277595Y-16448119D02*
X8287119Y-16429071D01*
X8287119Y-16429071D02*
X8296643Y-16419548D01*
X8296643Y-16419548D02*
X8315691Y-16410024D01*
X8496643Y-16495738D02*
X8477595Y-16486214D01*
X8477595Y-16486214D02*
X8468072Y-16476690D01*
X8468072Y-16476690D02*
X8458548Y-16457643D01*
X8458548Y-16457643D02*
X8458548Y-16448119D01*
X8458548Y-16448119D02*
X8468072Y-16429071D01*
X8468072Y-16429071D02*
X8477595Y-16419548D01*
X8477595Y-16419548D02*
X8496643Y-16410024D01*
X8496643Y-16410024D02*
X8534738Y-16410024D01*
X8534738Y-16410024D02*
X8553786Y-16419548D01*
X8553786Y-16419548D02*
X8563310Y-16429071D01*
X8563310Y-16429071D02*
X8572834Y-16448119D01*
X8572834Y-16448119D02*
X8572834Y-16457643D01*
X8572834Y-16457643D02*
X8563310Y-16476690D01*
X8563310Y-16476690D02*
X8553786Y-16486214D01*
X8553786Y-16486214D02*
X8534738Y-16495738D01*
X8534738Y-16495738D02*
X8496643Y-16495738D01*
X8496643Y-16495738D02*
X8477595Y-16505262D01*
X8477595Y-16505262D02*
X8468072Y-16514786D01*
X8468072Y-16514786D02*
X8458548Y-16533833D01*
X8458548Y-16533833D02*
X8458548Y-16571928D01*
X8458548Y-16571928D02*
X8468072Y-16590976D01*
X8468072Y-16590976D02*
X8477595Y-16600500D01*
X8477595Y-16600500D02*
X8496643Y-16610024D01*
X8496643Y-16610024D02*
X8534738Y-16610024D01*
X8534738Y-16610024D02*
X8553786Y-16600500D01*
X8553786Y-16600500D02*
X8563310Y-16590976D01*
X8563310Y-16590976D02*
X8572834Y-16571928D01*
X8572834Y-16571928D02*
X8572834Y-16533833D01*
X8572834Y-16533833D02*
X8563310Y-16514786D01*
X8563310Y-16514786D02*
X8553786Y-16505262D01*
X8553786Y-16505262D02*
X8534738Y-16495738D01*
X8744262Y-16410024D02*
X8706167Y-16410024D01*
X8706167Y-16410024D02*
X8687119Y-16419548D01*
X8687119Y-16419548D02*
X8677595Y-16429071D01*
X8677595Y-16429071D02*
X8658548Y-16457643D01*
X8658548Y-16457643D02*
X8649024Y-16495738D01*
X8649024Y-16495738D02*
X8649024Y-16571928D01*
X8649024Y-16571928D02*
X8658548Y-16590976D01*
X8658548Y-16590976D02*
X8668072Y-16600500D01*
X8668072Y-16600500D02*
X8687119Y-16610024D01*
X8687119Y-16610024D02*
X8725215Y-16610024D01*
X8725215Y-16610024D02*
X8744262Y-16600500D01*
X8744262Y-16600500D02*
X8753786Y-16590976D01*
X8753786Y-16590976D02*
X8763310Y-16571928D01*
X8763310Y-16571928D02*
X8763310Y-16524309D01*
X8763310Y-16524309D02*
X8753786Y-16505262D01*
X8753786Y-16505262D02*
X8744262Y-16495738D01*
X8744262Y-16495738D02*
X8725215Y-16486214D01*
X8725215Y-16486214D02*
X8687119Y-16486214D01*
X8687119Y-16486214D02*
X8668072Y-16495738D01*
X8668072Y-16495738D02*
X8658548Y-16505262D01*
X8658548Y-16505262D02*
X8649024Y-16524309D01*
X8934738Y-16410024D02*
X8896643Y-16410024D01*
X8896643Y-16410024D02*
X8877595Y-16419548D01*
X8877595Y-16419548D02*
X8868072Y-16429071D01*
X8868072Y-16429071D02*
X8849024Y-16457643D01*
X8849024Y-16457643D02*
X8839500Y-16495738D01*
X8839500Y-16495738D02*
X8839500Y-16571928D01*
X8839500Y-16571928D02*
X8849024Y-16590976D01*
X8849024Y-16590976D02*
X8858548Y-16600500D01*
X8858548Y-16600500D02*
X8877595Y-16610024D01*
X8877595Y-16610024D02*
X8915691Y-16610024D01*
X8915691Y-16610024D02*
X8934738Y-16600500D01*
X8934738Y-16600500D02*
X8944262Y-16590976D01*
X8944262Y-16590976D02*
X8953786Y-16571928D01*
X8953786Y-16571928D02*
X8953786Y-16524309D01*
X8953786Y-16524309D02*
X8944262Y-16505262D01*
X8944262Y-16505262D02*
X8934738Y-16495738D01*
X8934738Y-16495738D02*
X8915691Y-16486214D01*
X8915691Y-16486214D02*
X8877595Y-16486214D01*
X8877595Y-16486214D02*
X8858548Y-16495738D01*
X8858548Y-16495738D02*
X8849024Y-16505262D01*
X8849024Y-16505262D02*
X8839500Y-16524309D01*
X9029976Y-16410024D02*
X9029976Y-16448119D01*
X9106167Y-16410024D02*
X9106167Y-16448119D01*
X9401405Y-16686214D02*
X9391881Y-16676690D01*
X9391881Y-16676690D02*
X9372834Y-16648119D01*
X9372834Y-16648119D02*
X9363310Y-16629071D01*
X9363310Y-16629071D02*
X9353786Y-16600500D01*
X9353786Y-16600500D02*
X9344262Y-16552881D01*
X9344262Y-16552881D02*
X9344262Y-16514786D01*
X9344262Y-16514786D02*
X9353786Y-16467167D01*
X9353786Y-16467167D02*
X9363310Y-16438595D01*
X9363310Y-16438595D02*
X9372834Y-16419548D01*
X9372834Y-16419548D02*
X9391881Y-16390976D01*
X9391881Y-16390976D02*
X9401405Y-16381452D01*
X9506167Y-16495738D02*
X9487119Y-16486214D01*
X9487119Y-16486214D02*
X9477596Y-16476690D01*
X9477596Y-16476690D02*
X9468072Y-16457643D01*
X9468072Y-16457643D02*
X9468072Y-16448119D01*
X9468072Y-16448119D02*
X9477596Y-16429071D01*
X9477596Y-16429071D02*
X9487119Y-16419548D01*
X9487119Y-16419548D02*
X9506167Y-16410024D01*
X9506167Y-16410024D02*
X9544262Y-16410024D01*
X9544262Y-16410024D02*
X9563310Y-16419548D01*
X9563310Y-16419548D02*
X9572834Y-16429071D01*
X9572834Y-16429071D02*
X9582357Y-16448119D01*
X9582357Y-16448119D02*
X9582357Y-16457643D01*
X9582357Y-16457643D02*
X9572834Y-16476690D01*
X9572834Y-16476690D02*
X9563310Y-16486214D01*
X9563310Y-16486214D02*
X9544262Y-16495738D01*
X9544262Y-16495738D02*
X9506167Y-16495738D01*
X9506167Y-16495738D02*
X9487119Y-16505262D01*
X9487119Y-16505262D02*
X9477596Y-16514786D01*
X9477596Y-16514786D02*
X9468072Y-16533833D01*
X9468072Y-16533833D02*
X9468072Y-16571928D01*
X9468072Y-16571928D02*
X9477596Y-16590976D01*
X9477596Y-16590976D02*
X9487119Y-16600500D01*
X9487119Y-16600500D02*
X9506167Y-16610024D01*
X9506167Y-16610024D02*
X9544262Y-16610024D01*
X9544262Y-16610024D02*
X9563310Y-16600500D01*
X9563310Y-16600500D02*
X9572834Y-16590976D01*
X9572834Y-16590976D02*
X9582357Y-16571928D01*
X9582357Y-16571928D02*
X9582357Y-16533833D01*
X9582357Y-16533833D02*
X9572834Y-16514786D01*
X9572834Y-16514786D02*
X9563310Y-16505262D01*
X9563310Y-16505262D02*
X9544262Y-16495738D01*
X9820453Y-16610024D02*
X9820453Y-16410024D01*
X9906167Y-16610024D02*
X9906167Y-16505262D01*
X9906167Y-16505262D02*
X9896643Y-16486214D01*
X9896643Y-16486214D02*
X9877596Y-16476690D01*
X9877596Y-16476690D02*
X9849024Y-16476690D01*
X9849024Y-16476690D02*
X9829977Y-16486214D01*
X9829977Y-16486214D02*
X9820453Y-16495738D01*
X10029977Y-16610024D02*
X10010929Y-16600500D01*
X10010929Y-16600500D02*
X10001405Y-16590976D01*
X10001405Y-16590976D02*
X9991881Y-16571928D01*
X9991881Y-16571928D02*
X9991881Y-16514786D01*
X9991881Y-16514786D02*
X10001405Y-16495738D01*
X10001405Y-16495738D02*
X10010929Y-16486214D01*
X10010929Y-16486214D02*
X10029977Y-16476690D01*
X10029977Y-16476690D02*
X10058548Y-16476690D01*
X10058548Y-16476690D02*
X10077596Y-16486214D01*
X10077596Y-16486214D02*
X10087119Y-16495738D01*
X10087119Y-16495738D02*
X10096643Y-16514786D01*
X10096643Y-16514786D02*
X10096643Y-16571928D01*
X10096643Y-16571928D02*
X10087119Y-16590976D01*
X10087119Y-16590976D02*
X10077596Y-16600500D01*
X10077596Y-16600500D02*
X10058548Y-16610024D01*
X10058548Y-16610024D02*
X10029977Y-16610024D01*
X10210929Y-16610024D02*
X10191881Y-16600500D01*
X10191881Y-16600500D02*
X10182358Y-16581452D01*
X10182358Y-16581452D02*
X10182358Y-16410024D01*
X10363310Y-16600500D02*
X10344262Y-16610024D01*
X10344262Y-16610024D02*
X10306167Y-16610024D01*
X10306167Y-16610024D02*
X10287119Y-16600500D01*
X10287119Y-16600500D02*
X10277596Y-16581452D01*
X10277596Y-16581452D02*
X10277596Y-16505262D01*
X10277596Y-16505262D02*
X10287119Y-16486214D01*
X10287119Y-16486214D02*
X10306167Y-16476690D01*
X10306167Y-16476690D02*
X10344262Y-16476690D01*
X10344262Y-16476690D02*
X10363310Y-16486214D01*
X10363310Y-16486214D02*
X10372834Y-16505262D01*
X10372834Y-16505262D02*
X10372834Y-16524309D01*
X10372834Y-16524309D02*
X10277596Y-16543357D01*
X10449024Y-16600500D02*
X10468072Y-16610024D01*
X10468072Y-16610024D02*
X10506167Y-16610024D01*
X10506167Y-16610024D02*
X10525215Y-16600500D01*
X10525215Y-16600500D02*
X10534739Y-16581452D01*
X10534739Y-16581452D02*
X10534739Y-16571928D01*
X10534739Y-16571928D02*
X10525215Y-16552881D01*
X10525215Y-16552881D02*
X10506167Y-16543357D01*
X10506167Y-16543357D02*
X10477596Y-16543357D01*
X10477596Y-16543357D02*
X10458548Y-16533833D01*
X10458548Y-16533833D02*
X10449024Y-16514786D01*
X10449024Y-16514786D02*
X10449024Y-16505262D01*
X10449024Y-16505262D02*
X10458548Y-16486214D01*
X10458548Y-16486214D02*
X10477596Y-16476690D01*
X10477596Y-16476690D02*
X10506167Y-16476690D01*
X10506167Y-16476690D02*
X10525215Y-16486214D01*
X10601405Y-16686214D02*
X10610929Y-16676690D01*
X10610929Y-16676690D02*
X10629977Y-16648119D01*
X10629977Y-16648119D02*
X10639500Y-16629071D01*
X10639500Y-16629071D02*
X10649024Y-16600500D01*
X10649024Y-16600500D02*
X10658548Y-16552881D01*
X10658548Y-16552881D02*
X10658548Y-16514786D01*
X10658548Y-16514786D02*
X10649024Y-16467167D01*
X10649024Y-16467167D02*
X10639500Y-16438595D01*
X10639500Y-16438595D02*
X10629977Y-16419548D01*
X10629977Y-16419548D02*
X10610929Y-16390976D01*
X10610929Y-16390976D02*
X10601405Y-16381452D01*
X10963310Y-16686214D02*
X10953786Y-16676690D01*
X10953786Y-16676690D02*
X10934739Y-16648119D01*
X10934739Y-16648119D02*
X10925215Y-16629071D01*
X10925215Y-16629071D02*
X10915691Y-16600500D01*
X10915691Y-16600500D02*
X10906167Y-16552881D01*
X10906167Y-16552881D02*
X10906167Y-16514786D01*
X10906167Y-16514786D02*
X10915691Y-16467167D01*
X10915691Y-16467167D02*
X10925215Y-16438595D01*
X10925215Y-16438595D02*
X10934739Y-16419548D01*
X10934739Y-16419548D02*
X10953786Y-16390976D01*
X10953786Y-16390976D02*
X10963310Y-16381452D01*
X11039500Y-16476690D02*
X11039500Y-16610024D01*
X11039500Y-16495738D02*
X11049024Y-16486214D01*
X11049024Y-16486214D02*
X11068072Y-16476690D01*
X11068072Y-16476690D02*
X11096643Y-16476690D01*
X11096643Y-16476690D02*
X11115691Y-16486214D01*
X11115691Y-16486214D02*
X11125215Y-16505262D01*
X11125215Y-16505262D02*
X11125215Y-16610024D01*
X11249024Y-16610024D02*
X11229977Y-16600500D01*
X11229977Y-16600500D02*
X11220453Y-16590976D01*
X11220453Y-16590976D02*
X11210929Y-16571928D01*
X11210929Y-16571928D02*
X11210929Y-16514786D01*
X11210929Y-16514786D02*
X11220453Y-16495738D01*
X11220453Y-16495738D02*
X11229977Y-16486214D01*
X11229977Y-16486214D02*
X11249024Y-16476690D01*
X11249024Y-16476690D02*
X11277596Y-16476690D01*
X11277596Y-16476690D02*
X11296643Y-16486214D01*
X11296643Y-16486214D02*
X11306167Y-16495738D01*
X11306167Y-16495738D02*
X11315691Y-16514786D01*
X11315691Y-16514786D02*
X11315691Y-16571928D01*
X11315691Y-16571928D02*
X11306167Y-16590976D01*
X11306167Y-16590976D02*
X11296643Y-16600500D01*
X11296643Y-16600500D02*
X11277596Y-16610024D01*
X11277596Y-16610024D02*
X11249024Y-16610024D01*
X11372834Y-16476690D02*
X11449024Y-16476690D01*
X11401405Y-16410024D02*
X11401405Y-16581452D01*
X11401405Y-16581452D02*
X11410929Y-16600500D01*
X11410929Y-16600500D02*
X11429977Y-16610024D01*
X11429977Y-16610024D02*
X11449024Y-16610024D01*
X11668072Y-16476690D02*
X11668072Y-16676690D01*
X11668072Y-16486214D02*
X11687119Y-16476690D01*
X11687119Y-16476690D02*
X11725215Y-16476690D01*
X11725215Y-16476690D02*
X11744262Y-16486214D01*
X11744262Y-16486214D02*
X11753786Y-16495738D01*
X11753786Y-16495738D02*
X11763310Y-16514786D01*
X11763310Y-16514786D02*
X11763310Y-16571928D01*
X11763310Y-16571928D02*
X11753786Y-16590976D01*
X11753786Y-16590976D02*
X11744262Y-16600500D01*
X11744262Y-16600500D02*
X11725215Y-16610024D01*
X11725215Y-16610024D02*
X11687119Y-16610024D01*
X11687119Y-16610024D02*
X11668072Y-16600500D01*
X11877596Y-16610024D02*
X11858548Y-16600500D01*
X11858548Y-16600500D02*
X11849024Y-16581452D01*
X11849024Y-16581452D02*
X11849024Y-16410024D01*
X12039500Y-16610024D02*
X12039500Y-16505262D01*
X12039500Y-16505262D02*
X12029977Y-16486214D01*
X12029977Y-16486214D02*
X12010929Y-16476690D01*
X12010929Y-16476690D02*
X11972834Y-16476690D01*
X11972834Y-16476690D02*
X11953786Y-16486214D01*
X12039500Y-16600500D02*
X12020453Y-16610024D01*
X12020453Y-16610024D02*
X11972834Y-16610024D01*
X11972834Y-16610024D02*
X11953786Y-16600500D01*
X11953786Y-16600500D02*
X11944262Y-16581452D01*
X11944262Y-16581452D02*
X11944262Y-16562405D01*
X11944262Y-16562405D02*
X11953786Y-16543357D01*
X11953786Y-16543357D02*
X11972834Y-16533833D01*
X11972834Y-16533833D02*
X12020453Y-16533833D01*
X12020453Y-16533833D02*
X12039500Y-16524309D01*
X12106167Y-16476690D02*
X12182358Y-16476690D01*
X12134739Y-16410024D02*
X12134739Y-16581452D01*
X12134739Y-16581452D02*
X12144262Y-16600500D01*
X12144262Y-16600500D02*
X12163310Y-16610024D01*
X12163310Y-16610024D02*
X12182358Y-16610024D01*
X12325215Y-16600500D02*
X12306167Y-16610024D01*
X12306167Y-16610024D02*
X12268072Y-16610024D01*
X12268072Y-16610024D02*
X12249024Y-16600500D01*
X12249024Y-16600500D02*
X12239500Y-16581452D01*
X12239500Y-16581452D02*
X12239500Y-16505262D01*
X12239500Y-16505262D02*
X12249024Y-16486214D01*
X12249024Y-16486214D02*
X12268072Y-16476690D01*
X12268072Y-16476690D02*
X12306167Y-16476690D01*
X12306167Y-16476690D02*
X12325215Y-16486214D01*
X12325215Y-16486214D02*
X12334739Y-16505262D01*
X12334739Y-16505262D02*
X12334739Y-16524309D01*
X12334739Y-16524309D02*
X12239500Y-16543357D01*
X12506167Y-16610024D02*
X12506167Y-16410024D01*
X12506167Y-16600500D02*
X12487120Y-16610024D01*
X12487120Y-16610024D02*
X12449024Y-16610024D01*
X12449024Y-16610024D02*
X12429977Y-16600500D01*
X12429977Y-16600500D02*
X12420453Y-16590976D01*
X12420453Y-16590976D02*
X12410929Y-16571928D01*
X12410929Y-16571928D02*
X12410929Y-16514786D01*
X12410929Y-16514786D02*
X12420453Y-16495738D01*
X12420453Y-16495738D02*
X12429977Y-16486214D01*
X12429977Y-16486214D02*
X12449024Y-16476690D01*
X12449024Y-16476690D02*
X12487120Y-16476690D01*
X12487120Y-16476690D02*
X12506167Y-16486214D01*
X12582358Y-16686214D02*
X12591881Y-16676690D01*
X12591881Y-16676690D02*
X12610929Y-16648119D01*
X12610929Y-16648119D02*
X12620453Y-16629071D01*
X12620453Y-16629071D02*
X12629977Y-16600500D01*
X12629977Y-16600500D02*
X12639500Y-16552881D01*
X12639500Y-16552881D02*
X12639500Y-16514786D01*
X12639500Y-16514786D02*
X12629977Y-16467167D01*
X12629977Y-16467167D02*
X12620453Y-16438595D01*
X12620453Y-16438595D02*
X12610929Y-16419548D01*
X12610929Y-16419548D02*
X12591881Y-16390976D01*
X12591881Y-16390976D02*
X12582358Y-16381452D01*
M02*
