%TF.GenerationSoftware,KiCad,Pcbnew,7.0.5*%
%TF.CreationDate,2023-07-24T11:34:01-05:00*%
%TF.ProjectId,AcoplePic32,41636f70-6c65-4506-9963-33322e6b6963,rev?*%
%TF.SameCoordinates,Original*%
%TF.FileFunction,Copper,L2,Bot*%
%TF.FilePolarity,Positive*%
%FSLAX46Y46*%
G04 Gerber Fmt 4.6, Leading zero omitted, Abs format (unit mm)*
G04 Created by KiCad (PCBNEW 7.0.5) date 2023-07-24 11:34:01*
%MOMM*%
%LPD*%
G01*
G04 APERTURE LIST*
G04 Aperture macros list*
%AMRoundRect*
0 Rectangle with rounded corners*
0 $1 Rounding radius*
0 $2 $3 $4 $5 $6 $7 $8 $9 X,Y pos of 4 corners*
0 Add a 4 corners polygon primitive as box body*
4,1,4,$2,$3,$4,$5,$6,$7,$8,$9,$2,$3,0*
0 Add four circle primitives for the rounded corners*
1,1,$1+$1,$2,$3*
1,1,$1+$1,$4,$5*
1,1,$1+$1,$6,$7*
1,1,$1+$1,$8,$9*
0 Add four rect primitives between the rounded corners*
20,1,$1+$1,$2,$3,$4,$5,0*
20,1,$1+$1,$4,$5,$6,$7,0*
20,1,$1+$1,$6,$7,$8,$9,0*
20,1,$1+$1,$8,$9,$2,$3,0*%
G04 Aperture macros list end*
%TA.AperFunction,ComponentPad*%
%ADD10R,1.700000X1.700000*%
%TD*%
%TA.AperFunction,ComponentPad*%
%ADD11O,1.700000X1.700000*%
%TD*%
%TA.AperFunction,SMDPad,CuDef*%
%ADD12RoundRect,0.100000X0.217500X0.100000X-0.217500X0.100000X-0.217500X-0.100000X0.217500X-0.100000X0*%
%TD*%
%TA.AperFunction,SMDPad,CuDef*%
%ADD13RoundRect,0.250000X-0.400000X-0.625000X0.400000X-0.625000X0.400000X0.625000X-0.400000X0.625000X0*%
%TD*%
%TA.AperFunction,SMDPad,CuDef*%
%ADD14RoundRect,0.237500X-0.250000X-0.237500X0.250000X-0.237500X0.250000X0.237500X-0.250000X0.237500X0*%
%TD*%
%TA.AperFunction,SMDPad,CuDef*%
%ADD15RoundRect,0.250000X0.250000X0.250000X-0.250000X0.250000X-0.250000X-0.250000X0.250000X-0.250000X0*%
%TD*%
%TA.AperFunction,ViaPad*%
%ADD16C,0.800000*%
%TD*%
%TA.AperFunction,Conductor*%
%ADD17C,0.250000*%
%TD*%
G04 APERTURE END LIST*
D10*
%TO.P,J1,1,Pin_1*%
%TO.N,Net-(J1-Pin_1)*%
X110869709Y-51898058D03*
D11*
%TO.P,J1,2,Pin_2*%
%TO.N,MuEnable1H*%
X110869709Y-54438058D03*
%TO.P,J1,3,Pin_3*%
%TO.N,MuEnable1L*%
X110869709Y-56978058D03*
%TO.P,J1,4,Pin_4*%
%TO.N,An17*%
X110869709Y-59518058D03*
%TO.P,J1,5,Pin_5*%
%TO.N,Net-(J1-Pin_5)*%
X110869709Y-62058058D03*
%TO.P,J1,6,Pin_6*%
%TO.N,Net-(J1-Pin_6)*%
X110869709Y-64598058D03*
%TO.P,J1,7,Pin_7*%
%TO.N,Net-(J1-Pin_7)*%
X110869709Y-67138058D03*
%TO.P,J1,8,Pin_8*%
%TO.N,Net-(J1-Pin_8)*%
X110869709Y-69678058D03*
%TO.P,J1,9,Pin_9*%
%TO.N,VSS9*%
X110869709Y-72218058D03*
%TO.P,J1,10,Pin_10*%
%TO.N,Net-(J1-Pin_10)*%
X110869709Y-74758058D03*
%TO.P,J1,11,Pin_11*%
%TO.N,MuPWM1H*%
X110869709Y-77298058D03*
%TO.P,J1,12,Pin_12*%
%TO.N,MuPWM1L*%
X110869709Y-79838058D03*
%TO.P,J1,13,Pin_13*%
%TO.N,MuPWM3H*%
X110869709Y-82378058D03*
%TO.P,J1,14,Pin_14*%
%TO.N,MuPWM3L*%
X110869709Y-84918058D03*
%TO.P,J1,15,Pin_15*%
%TO.N,QEIA3*%
X110869709Y-87458058D03*
%TO.P,J1,16,Pin_16*%
%TO.N,QEIB3*%
X110869709Y-89998058D03*
%TO.P,J1,17,Pin_17*%
%TO.N,Net-(J1-Pin_17)*%
X110869709Y-92538058D03*
%TO.P,J1,18,Pin_18*%
%TO.N,Net-(J1-Pin_18)*%
X110869709Y-95078058D03*
%TO.P,J1,19,Pin_19*%
%TO.N,Net-(J1-Pin_19)*%
X110869709Y-97618058D03*
%TO.P,J1,20,Pin_20*%
%TO.N,Net-(J1-Pin_20)*%
X110869709Y-100158058D03*
%TO.P,J1,21,Pin_21*%
%TO.N,Net-(J1-Pin_21)*%
X110869709Y-102698058D03*
%TO.P,J1,22,Pin_22*%
%TO.N,Net-(J1-Pin_22)*%
X110869709Y-105238058D03*
%TO.P,J1,23,Pin_23*%
%TO.N,Net-(J1-Pin_23)*%
X110869709Y-107778058D03*
%TO.P,J1,24,Pin_24*%
%TO.N,Net-(J1-Pin_24)*%
X110869709Y-110318058D03*
%TO.P,J1,25,Pin_25*%
%TO.N,Net-(J1-Pin_25)*%
X110869709Y-112858058D03*
%TO.P,J1,26,Pin_26*%
%TO.N,Net-(J1-Pin_26)*%
X110869709Y-115398058D03*
%TO.P,J1,27,Pin_27*%
%TO.N,MuPWM2H*%
X110869709Y-117938058D03*
%TO.P,J1,28,Pin_28*%
%TO.N,MuPWM2L*%
X110869709Y-120478058D03*
%TO.P,J1,29,Pin_29*%
%TO.N,QEIA2*%
X110869709Y-123018058D03*
%TO.P,J1,30,Pin_30*%
%TO.N,QEIB2*%
X110869709Y-125558058D03*
%TO.P,J1,31,Pin_31*%
%TO.N,Net-(J1-Pin_31)*%
X110869709Y-128098058D03*
%TO.P,J1,32,Pin_32*%
%TO.N,Net-(J1-Pin_32)*%
X110869709Y-130638058D03*
%TD*%
%TO.P,J3,33,Pin_32*%
%TO.N,Net-(J3-Pin_32)*%
X133169709Y-130638058D03*
%TO.P,J3,34,Pin_31*%
%TO.N,Net-(J3-Pin_31)*%
X133169709Y-128098058D03*
%TO.P,J3,35,Pin_30*%
%TO.N,Net-(J3-Pin_30)*%
X133169709Y-125558058D03*
%TO.P,J3,36,Pin_29*%
%TO.N,Net-(J3-Pin_29)*%
X133169709Y-123018058D03*
%TO.P,J3,37,Pin_28*%
%TO.N,Net-(J3-Pin_28)*%
X133169709Y-120478058D03*
%TO.P,J3,38,Pin_27*%
%TO.N,Net-(J3-Pin_27)*%
X133169709Y-117938058D03*
%TO.P,J3,39,Pin_26*%
%TO.N,Net-(J3-Pin_26)*%
X133169709Y-115398058D03*
%TO.P,J3,40,Pin_25*%
%TO.N,Net-(J3-Pin_25)*%
X133169709Y-112858058D03*
%TO.P,J3,41,Pin_24*%
%TO.N,VSS*%
X133169709Y-110318058D03*
%TO.P,J3,42,Pin_23*%
%TO.N,UART_TX*%
X133169709Y-107778058D03*
%TO.P,J3,43,Pin_22*%
%TO.N,RS232TX*%
X133169709Y-105238058D03*
%TO.P,J3,44,Pin_21*%
%TO.N,UART_RX*%
X133169709Y-102698058D03*
%TO.P,J3,45,Pin_20*%
%TO.N,RS232RX*%
X133169709Y-100158058D03*
%TO.P,J3,46,Pin_19*%
%TO.N,Net-(J3-Pin_19)*%
X133169709Y-97618058D03*
%TO.P,J3,47,Pin_18*%
%TO.N,Net-(J3-Pin_18)*%
X133169709Y-95078058D03*
%TO.P,J3,48,Pin_17*%
%TO.N,Net-(J3-Pin_17)*%
X133169709Y-92538058D03*
%TO.P,J3,49,Pin_16*%
%TO.N,Net-(J3-Pin_16)*%
X133169709Y-89998058D03*
%TO.P,J3,50,Pin_15*%
%TO.N,Net-(J3-Pin_15)*%
X133169709Y-87458058D03*
%TO.P,J3,51,Pin_14*%
%TO.N,QEIB1*%
X133169709Y-84918058D03*
%TO.P,J3,52,Pin_13*%
%TO.N,QEIA1*%
X133169709Y-82378058D03*
%TO.P,J3,53,Pin_12*%
%TO.N,Net-(J3-Pin_12)*%
X133169709Y-79838058D03*
%TO.P,J3,54,Pin_11*%
%TO.N,Net-(J3-Pin_11)*%
X133169709Y-77298058D03*
%TO.P,J3,55,Pin_10*%
%TO.N,Net-(J3-Pin_10)*%
X133169709Y-74758058D03*
%TO.P,J3,56,Pin_9*%
%TO.N,Net-(J3-Pin_9)*%
X133169709Y-72218058D03*
%TO.P,J3,57,Pin_8*%
%TO.N,Net-(J3-Pin_8)*%
X133169709Y-69678058D03*
%TO.P,J3,58,Pin_7*%
%TO.N,Net-(J3-Pin_7)*%
X133169709Y-67138058D03*
%TO.P,J3,59,Pin_6*%
%TO.N,Net-(J3-Pin_6)*%
X133169709Y-64598058D03*
%TO.P,J3,60,Pin_5*%
%TO.N,Net-(J3-Pin_5)*%
X133169709Y-62058058D03*
%TO.P,J3,61,Pin_4*%
%TO.N,MuEnable3L*%
X133169709Y-59518058D03*
%TO.P,J3,62,Pin_3*%
%TO.N,MuEnable3H*%
X133169709Y-56978058D03*
%TO.P,J3,63,Pin_2*%
%TO.N,MuEnable2L*%
X133169709Y-54438058D03*
D10*
%TO.P,J3,64,Pin_1*%
%TO.N,MuEnable2H*%
X133169709Y-51898058D03*
%TD*%
D12*
%TO.P,R3,1*%
%TO.N,An17*%
X117247500Y-70993000D03*
%TO.P,R3,2*%
%TO.N,VSS9*%
X116432500Y-70993000D03*
%TD*%
D13*
%TO.P,R1,1*%
%TO.N,MuRS232RX*%
X126897800Y-107847800D03*
%TO.P,R1,2*%
%TO.N,RS232RX*%
X129997800Y-107847800D03*
%TD*%
D14*
%TO.P,R2,1*%
%TO.N,MuRS232RX*%
X127560700Y-110898300D03*
%TO.P,R2,2*%
%TO.N,VSS*%
X129385700Y-110898300D03*
%TD*%
D15*
%TO.P,D1,1,A1*%
%TO.N,An17*%
X118090000Y-67691000D03*
%TO.P,D1,2,A2*%
%TO.N,VSS9*%
X115590000Y-67691000D03*
%TD*%
D16*
%TO.N,MuEnable1H*%
X115603700Y-83362800D03*
%TO.N,MuEnable1L*%
X115544600Y-81991200D03*
%TO.N,MuPWM1H*%
X118751100Y-75082400D03*
%TO.N,MuPWM1L*%
X118750600Y-76758800D03*
X113385600Y-78740000D03*
%TO.N,MuPWM3H*%
X119792500Y-73329800D03*
X123723400Y-76428600D03*
X113893600Y-76301600D03*
X118897400Y-70739000D03*
%TO.N,MuPWM3L*%
X125222000Y-77343000D03*
%TO.N,MuEnable3H*%
X122263500Y-80010000D03*
X124802300Y-74520243D03*
X116408200Y-99822000D03*
%TO.N,MuEnable3L*%
X117449600Y-100126800D03*
X125526800Y-75387200D03*
X123418600Y-81610200D03*
%TO.N,MuPWM2L*%
X117223560Y-111665489D03*
X123723400Y-78917800D03*
%TO.N,MuPWM2H*%
X124497500Y-78206600D03*
X116382800Y-111125000D03*
%TO.N,MuEnable2L*%
X113690400Y-88849200D03*
%TO.N,UART_TX*%
X130937000Y-88519000D03*
X129311400Y-104216200D03*
%TO.N,QEIB1*%
X130200400Y-83921600D03*
%TO.N,Net-(J3-Pin_16)*%
X130810000Y-104165400D03*
%TO.N,MuRS232RX*%
X129971800Y-97561400D03*
%TO.N,An17*%
X118300600Y-65976600D03*
%TD*%
D17*
%TO.N,VSS9*%
X115590000Y-70150500D02*
X115590000Y-67691000D01*
X116432500Y-70993000D02*
X115590000Y-70150500D01*
%TO.N,An17*%
X118090000Y-70150500D02*
X117247500Y-70993000D01*
X118090000Y-67691000D02*
X118090000Y-70150500D01*
%TO.N,MuEnable1H*%
X122936000Y-69761605D02*
X122936000Y-61952827D01*
X120736673Y-59753500D02*
X119189500Y-59753500D01*
X119067500Y-73029495D02*
X119492195Y-72604800D01*
X119926100Y-74595699D02*
X119067500Y-73737099D01*
X119492195Y-72604800D02*
X120092805Y-72604800D01*
X115603700Y-83362800D02*
X117170200Y-83362800D01*
X113874058Y-54438058D02*
X110869709Y-54438058D01*
X119926100Y-80606900D02*
X119926100Y-74595699D01*
X122936000Y-61952827D02*
X120736673Y-59753500D01*
X120092805Y-72604800D02*
X122936000Y-69761605D01*
X119189500Y-59753500D02*
X113874058Y-54438058D01*
X117170200Y-83362800D02*
X119926100Y-80606900D01*
X119067500Y-73737099D02*
X119067500Y-73029495D01*
%TO.N,MuEnable1L*%
X115654601Y-81881199D02*
X117626496Y-81881199D01*
X118617500Y-72843099D02*
X119971400Y-71489199D01*
X115544600Y-81991200D02*
X115654601Y-81881199D01*
X119971400Y-66079749D02*
X110869709Y-56978058D01*
X117626496Y-81881199D02*
X119476100Y-80031595D01*
X119971400Y-71489199D02*
X119971400Y-66079749D01*
X119476100Y-74782095D02*
X118617500Y-73923495D01*
X118617500Y-73923495D02*
X118617500Y-72843099D01*
X119476100Y-80031595D02*
X119476100Y-74782095D01*
%TO.N,MuPWM1H*%
X116484157Y-77298058D02*
X110869709Y-77298058D01*
X118751100Y-75082400D02*
X118699815Y-75082400D01*
X118699815Y-75082400D02*
X116484157Y-77298058D01*
%TO.N,MuPWM1L*%
X118364000Y-76758800D02*
X116382800Y-78740000D01*
X118750600Y-76758800D02*
X118364000Y-76758800D01*
X116382800Y-78740000D02*
X113385600Y-78740000D01*
%TO.N,MuPWM3H*%
X122891300Y-76428600D02*
X123723400Y-76428600D01*
X118897400Y-70739000D02*
X113893600Y-75742800D01*
X113893600Y-75742800D02*
X113893600Y-76301600D01*
X119792500Y-73329800D02*
X122891300Y-76428600D01*
%TO.N,MuPWM3L*%
X113290651Y-87339000D02*
X110869709Y-84918058D01*
X120862505Y-77384495D02*
X120862505Y-80695800D01*
X114219305Y-87339000D02*
X113290651Y-87339000D01*
X120862505Y-80695800D02*
X114219305Y-87339000D01*
X120904000Y-77343000D02*
X120862505Y-77384495D01*
X125222000Y-77343000D02*
X120904000Y-77343000D01*
%TO.N,MuEnable3H*%
X116408200Y-99822000D02*
X122263500Y-93966700D01*
X125076800Y-74245743D02*
X125076800Y-73905404D01*
X130385400Y-59762367D02*
X133169709Y-56978058D01*
X124802300Y-74520243D02*
X125076800Y-74245743D01*
X122263500Y-93966700D02*
X122263500Y-80010000D01*
X125076800Y-73905404D02*
X130385400Y-68596804D01*
X130385400Y-68596804D02*
X130385400Y-59762367D01*
%TO.N,MuEnable3L*%
X125526800Y-74091800D02*
X130835400Y-68783200D01*
X123418600Y-94157800D02*
X117449600Y-100126800D01*
X125526800Y-75387200D02*
X125526800Y-74091800D01*
X130835400Y-68783200D02*
X130835400Y-61852367D01*
X123418600Y-81610200D02*
X123418600Y-94157800D01*
X130835400Y-61852367D02*
X133169709Y-59518058D01*
%TO.N,MuPWM2L*%
X115657800Y-111425305D02*
X115657800Y-86536901D01*
X117045588Y-111487517D02*
X116683105Y-111850000D01*
X116683105Y-111850000D02*
X116082495Y-111850000D01*
X121312505Y-80882196D02*
X121312505Y-78917800D01*
X116082495Y-111850000D02*
X115657800Y-111425305D01*
X117223560Y-111665489D02*
X117045588Y-111487517D01*
X121312505Y-78917800D02*
X123723400Y-78917800D01*
X115657800Y-86536901D02*
X121312505Y-80882196D01*
%TO.N,MuPWM2H*%
X124497500Y-78206600D02*
X124612400Y-78321500D01*
X124612400Y-78321500D02*
X124612400Y-102971600D01*
X116459000Y-111125000D02*
X116382800Y-111125000D01*
X124612400Y-102971600D02*
X116459000Y-111125000D01*
%TO.N,MuEnable2L*%
X115986588Y-112390489D02*
X113690400Y-110094301D01*
X117948560Y-110271836D02*
X117948560Y-111965794D01*
X124077300Y-74963005D02*
X125947000Y-76832705D01*
X124077300Y-63530467D02*
X124077300Y-74963005D01*
X133169709Y-54438058D02*
X124077300Y-63530467D01*
X117948560Y-111965794D02*
X117523865Y-112390489D01*
X125947000Y-102273396D02*
X117948560Y-110271836D01*
X125947000Y-76832705D02*
X125947000Y-102273396D01*
X117523865Y-112390489D02*
X115986588Y-112390489D01*
X113690400Y-110094301D02*
X113690400Y-88849200D01*
%TO.N,UART_TX*%
X129311400Y-104216200D02*
X128473200Y-103378000D01*
X128473200Y-90982800D02*
X130937000Y-88519000D01*
X128473200Y-103378000D02*
X128473200Y-90982800D01*
%TO.N,VSS*%
X129385700Y-110898300D02*
X129965942Y-110318058D01*
X129965942Y-110318058D02*
X133169709Y-110318058D01*
%TO.N,RS232RX*%
X131535000Y-106310600D02*
X131535000Y-101792767D01*
X131535000Y-101792767D02*
X133169709Y-100158058D01*
X129997800Y-107847800D02*
X131535000Y-106310600D01*
%TO.N,QEIB1*%
X132173251Y-83921600D02*
X133169709Y-84918058D01*
X130200400Y-83921600D02*
X132173251Y-83921600D01*
%TO.N,Net-(J3-Pin_16)*%
X130810000Y-104165400D02*
X130810000Y-92357767D01*
X130810000Y-92357767D02*
X133169709Y-89998058D01*
%TO.N,MuRS232RX*%
X129971800Y-97561400D02*
X130036400Y-97626000D01*
X130036400Y-104709200D02*
X126897800Y-107847800D01*
X127560700Y-110898300D02*
X126897800Y-110235400D01*
X126897800Y-110235400D02*
X126897800Y-107847800D01*
X130036400Y-97626000D02*
X130036400Y-104709200D01*
%TO.N,An17*%
X118300600Y-65976600D02*
X118300600Y-67480400D01*
X118300600Y-67480400D02*
X118090000Y-67691000D01*
%TO.N,VSS9*%
X115590000Y-70719000D02*
X114090942Y-72218058D01*
X114090942Y-72218058D02*
X110869709Y-72218058D01*
X115590000Y-67691000D02*
X115590000Y-70719000D01*
%TD*%
M02*
