M48
; DRILL file {KiCad 7.0.1} date Mon Apr 10 20:01:36 2023
; FORMAT={-:-/ absolute / inch / decimal}
; #@! TF.CreationDate,2023-04-10T20:01:36-05:00
; #@! TF.GenerationSoftware,Kicad,Pcbnew,7.0.1
; #@! TF.FileFunction,Plated,1,2,PTH
FMAT,2
INCH
; #@! TA.AperFunction,Plated,PTH,ViaDrill
T1C0.0157
; #@! TA.AperFunction,Plated,PTH,ViaDrill
T2C0.0315
; #@! TA.AperFunction,Plated,PTH,ViaDrill
T3C0.0394
; #@! TA.AperFunction,Plated,PTH,ComponentDrill
T4C0.0394
; #@! TA.AperFunction,Plated,PTH,ComponentDrill
T5C0.0430
; #@! TA.AperFunction,Plated,PTH,ComponentDrill
T6C0.0470
; #@! TA.AperFunction,Plated,PTH,ComponentDrill
T7C0.0472
; #@! TA.AperFunction,Plated,PTH,ComponentDrill
T8C0.0591
; #@! TA.AperFunction,Plated,PTH,ComponentDrill
T9C0.0669
; #@! TA.AperFunction,Plated,PTH,ComponentDrill
T10C0.1260
%
G90
G05
T1
X3.0335Y-5.75
X3.0748Y-3.122
X3.2638Y-5.5695
X3.5344Y-4.1769
X3.7441Y-2.8917
X3.7874Y-2.5787
X3.7874Y-3.185
X3.8061Y-3.2992
X3.9016Y-3.955
X3.925Y-2.525
X3.9537Y-3.825
X3.9665Y-5.5285
X3.9727Y-5.2991
X3.9944Y-4.7306
X4.0Y-4.8
X4.0Y-5.5
X4.05Y-4.2717
X4.0551Y-3.2913
X4.0664Y-3.3332
X4.075Y-2.925
X4.075Y-3.25
X4.1102Y-3.625
X4.1378Y-3.5433
X4.1496Y-4.7992
X4.15Y-3.725
X4.15Y-3.825
X4.15Y-4.725
X4.15Y-5.0035
X4.15Y-5.1
X4.15Y-5.2
X4.187Y-5.2756
X4.2Y-2.825
X4.2Y-4.85
X4.2Y-4.925
X4.2Y-5.45
X4.2087Y-4.4291
X4.2244Y-2.6142
X4.225Y-2.7
X4.2323Y-4.793
X4.25Y-5.4
X4.2559Y-4.7362
X4.2795Y-1.9823
X4.325Y-3.15
X4.325Y-4.3
X4.3307Y-5.4134
X4.375Y-2.825
X4.375Y-2.9492
X4.4Y-5.35
X4.4Y-5.45
X4.4Y-5.5
X4.4Y-5.55
X4.4272Y-3.9872
X4.4301Y-4.2383
X4.4587Y-4.3091
X4.475Y-3.925
X4.4882Y-2.2362
X4.5Y-4.75
X4.5Y-5.4665
X4.55Y-2.95
X4.55Y-3.9335
X4.575Y-3.6
X4.575Y-3.7
X4.575Y-3.8
X4.596Y-2.2763
X4.6Y-5.2285
X4.61Y-4.975
X4.6181Y-2.4803
X4.6195Y-3.5001
X4.6215Y-2.6
X4.6215Y-2.7
X4.6215Y-2.8
X4.6385Y-5.02
X4.65Y-5.1535
X4.65Y-5.2
X4.6612Y-4.8933
X4.6654Y-5.7047
X4.6811Y-4.2105
X4.689Y-3.4469
X4.695Y-3.195
X4.7Y-4.575
X4.7Y-4.65
X4.7Y-5.25
X4.7047Y-3.9213
X4.7126Y-3.9862
X4.72Y-3.08
X4.7289Y-2.7039
X4.825Y-1.5
X4.8381Y-5.7215
X4.9Y-4.9
X4.9215Y-2.65
X4.925Y-3.575
X4.9252Y-5.7215
X4.9568Y-4.7462
X4.9764Y-5.1161
X4.9764Y-5.5512
X4.98Y-2.55
X5.0354Y-2.3583
X5.05Y-1.2865
X5.05Y-2.15
X5.06Y-2.55
X5.1Y-4.8622
X5.1575Y-5.7805
X5.16Y-2.1654
X5.1909Y-4.937
X5.2Y-3.975
X5.225Y-2.25
X5.225Y-2.4262
X5.2323Y-5.7874
X5.2362Y-2.15
X5.2373Y-3.753
X5.2647Y-1.9724
X5.2756Y-2.0472
X5.325Y-2.675
X5.4004Y-2.3296
X5.4331Y-4.7441
X5.4331Y-5.0098
X5.51Y-3.44
X5.5535Y-2.75
X5.5591Y-3.5354
X5.5591Y-5.6417
X5.5715Y-3.44
X5.58Y-5.755
X5.5906Y-2.4016
X5.6Y-2.6
X5.6285Y-2.7
X5.6969Y-2.189
X5.7785Y-3.64
X5.785Y-5.2107
X5.7864Y-2.9409
X5.7874Y-2.9921
X5.805Y-4.94
X5.8076Y-4.6855
X5.8076Y-5.1772
X5.814Y-3.122
X5.8533Y-2.4345
X5.8987Y-5.6891
X5.9016Y-2.8228
X5.9016Y-2.8858
X5.9066Y-3.1457
X5.9085Y-5.437
X5.9213Y-5.1457
X5.9291Y-2.0925
X5.9409Y-2.2421
X6.0623Y-1.9985
X6.0717Y-4.1125
X6.075Y-1.395
X6.08Y-2.2467
X6.14Y-1.64
X6.1803Y-2.185
X6.2087Y-3.315
X6.2153Y-2.3671
X6.22Y-5.7195
X6.2205Y-4.5472
X6.2565Y-4.74
X6.26Y-2.275
X6.2958Y-4.7406
X6.3098Y-2.2448
X6.335Y-1.55
X6.3644Y-4.2323
X6.4075Y-4.2224
X6.4173Y-4.5866
X6.475Y-1.67
X6.49Y-1.725
X6.52Y-1.785
X6.56Y-2.34
X6.5748Y-4.1929
X6.585Y-1.95
X6.67Y-1.91
X6.7539Y-1.6285
X6.775Y-4.225
X6.8675Y-1.8225
X6.87Y-1.725
X6.87Y-1.91
X6.9Y-1.975
X6.9285Y-1.715
X6.9536Y-1.765
X6.98Y-2.13
X7.045Y-1.435
X7.045Y-1.6015
X7.0472Y-5.3386
X7.0945Y-5.3661
X7.095Y-1.975
X7.1339Y-5.4094
X7.1725Y-1.9225
X7.2402Y-5.2776
X7.748Y-3.4537
T2
X3.85Y-3.075
X3.8902Y-3.8289
X4.0Y-5.75
X4.4843Y-2.2992
X4.7008Y-2.3898
X4.75Y-2.3344
X4.975Y-3.9253
X5.025Y-3.825
X5.294Y-2.315
X5.525Y-2.45
X5.575Y-1.35
X5.9205Y-5.0755
X5.9724Y-1.3504
X6.0039Y-5.075
X6.02Y-2.435
T3
X2.675Y-3.175
X2.75Y-4.75
X2.9134Y-1.7992
X3.025Y-2.05
X3.0315Y-5.9843
X3.25Y-4.85
X3.35Y-6.175
X3.42Y-2.05
X3.425Y-3.025
X3.4386Y-1.9136
X3.5Y-4.05
X3.7441Y-4.4449
X3.75Y-6.0
X3.825Y-1.725
X3.84Y-3.54
X3.85Y-1.5459
X3.85Y-5.2
X3.9114Y-6.1752
X3.95Y-3.62
X3.95Y-4.55
X4.0Y-5.15
X4.1998Y-2.126
X4.2559Y-2.2165
X4.375Y-1.485
X4.75Y-2.175
X4.9449Y-1.975
T4
X2.8281Y-3.4
X2.925Y-1.4
X3.025Y-3.4
X3.1Y-4.5031
X3.1Y-4.7
X3.1219Y-1.4
X4.2018Y-4.122
X4.3018Y-4.122
X4.4018Y-4.122
X4.5018Y-4.122
X4.6018Y-4.122
X4.8081Y-2.539
X4.8081Y-2.639
X4.8081Y-2.739
X4.8081Y-2.839
X4.8081Y-2.939
X4.8081Y-3.039
X4.8081Y-3.139
X4.8081Y-3.239
X4.8081Y-3.339
X4.8081Y-3.439
X4.8081Y-3.539
X4.8081Y-3.639
X4.8081Y-3.739
X4.8081Y-3.839
X4.8081Y-3.939
X4.8081Y-4.039
X4.8081Y-4.139
X4.8081Y-4.239
X4.8081Y-4.339
X4.8081Y-4.439
X4.8081Y-4.539
X4.8081Y-4.639
X4.8081Y-4.739
X4.8081Y-4.839
X4.8081Y-4.939
X4.8081Y-5.039
X4.8081Y-5.139
X4.8081Y-5.239
X4.8081Y-5.339
X4.8081Y-5.439
X4.8081Y-5.539
X4.8081Y-5.639
X5.6881Y-2.5392
X5.6881Y-2.6392
X5.6881Y-2.7392
X5.6881Y-2.8392
X5.6881Y-2.9392
X5.6881Y-3.0392
X5.6881Y-3.1392
X5.6881Y-3.2392
X5.6881Y-3.3392
X5.6881Y-3.4392
X5.6881Y-3.5392
X5.6881Y-3.6392
X5.6881Y-3.7392
X5.6881Y-3.8392
X5.6881Y-3.9392
X5.6881Y-4.0392
X5.6881Y-4.1392
X5.6881Y-4.2392
X5.6881Y-4.3392
X5.6881Y-4.4392
X5.6881Y-4.5392
X5.6881Y-4.6392
X5.6881Y-4.7392
X5.6881Y-4.8392
X5.6881Y-4.9392
X5.6881Y-5.0392
X5.6881Y-5.1392
X5.6881Y-5.2392
X5.6881Y-5.3392
X5.6881Y-5.4392
X5.6881Y-5.5392
X5.6881Y-5.6392
X6.0402Y-3.9764
X6.1362Y-5.4252
X6.1362Y-5.5252
X6.1402Y-3.9764
X6.2362Y-5.4252
X6.2362Y-5.5252
X6.2402Y-3.9764
X6.33Y-2.6598
X6.33Y-2.7598
X6.3362Y-5.4252
X6.3362Y-5.5252
X6.4362Y-5.4252
X6.4362Y-5.5252
X6.5362Y-5.4252
X6.5362Y-5.5252
X6.6362Y-5.4252
X6.6362Y-5.5252
X6.7362Y-5.4252
X6.7362Y-5.5252
X6.8362Y-5.4252
X6.8362Y-5.5252
X7.35Y-3.55
X7.45Y-3.55
X7.55Y-3.55
X7.65Y-3.55
X7.75Y-3.55
X7.85Y-3.55
X7.95Y-3.55
X8.05Y-3.55
T5
X2.615Y-5.2564
X2.615Y-5.4064
X2.615Y-5.5564
X2.615Y-5.7064
X2.615Y-5.8564
X2.615Y-6.0064
X2.64Y-3.68
X2.64Y-3.83
X2.64Y-3.98
X2.64Y-4.13
X2.64Y-4.28
X2.64Y-4.43
X3.925Y-1.275
X4.075Y-1.275
X4.225Y-1.275
X4.375Y-1.275
X4.525Y-1.275
X4.675Y-1.275
X6.3766Y-5.8791
X6.4311Y-5.9791
X6.4856Y-5.8791
X6.5402Y-5.9791
X6.5947Y-5.8791
X6.6492Y-5.9791
X6.7037Y-5.8791
X6.7583Y-5.9791
X6.8128Y-5.8791
X7.8822Y-3.2017
X7.8822Y-3.3517
T6
X2.6496Y-2.5807
X2.6496Y-2.7307
X2.6496Y-2.8807
X2.65Y-1.58
X2.65Y-1.73
X2.65Y-1.88
X2.65Y-2.075
X2.65Y-2.225
X2.65Y-2.375
T7
X3.1Y-2.25
X3.1Y-2.4469
X4.3088Y-5.85
X4.5057Y-5.85
X4.9481Y-1.55
X5.145Y-1.55
T8
X6.485Y-1.4
X6.675Y-1.4
X6.865Y-1.4
T9
X6.6326Y-3.76
X6.7126Y-2.875
X6.7263Y-3.6663
X6.7263Y-3.8537
X6.8063Y-2.7813
X6.8063Y-2.9687
X6.82Y-3.76
X6.9Y-2.875
X7.0813Y-2.2813
X7.175Y-2.1876
X7.175Y-2.375
X7.2687Y-2.2813
X7.3626Y-2.875
X7.4563Y-2.7813
X7.4563Y-2.9687
X7.55Y-2.875
X7.7263Y-2.3187
X7.7326Y-1.6687
X7.82Y-2.225
X7.82Y-2.4124
X7.8263Y-1.575
X7.8263Y-1.7624
X7.9137Y-2.3187
X7.92Y-1.6687
T10
X6.1028Y-5.9291
X7.0866Y-5.9291
T4
G00X5.6125Y-1.6457
M15
G01X5.6125Y-1.7244
M16
G05
G00X5.8369Y-1.5669
M15
G01X5.7582Y-1.5669
M16
G05
G00X5.8369Y-1.8031
M15
G01X5.7582Y-1.8031
M16
G05
T0
M30
